<svg width="335" height="56" viewBox="0 0 335 56" fill="none" xmlns="http://www.w3.org/2000/svg">
<rect width="335" height="56" rx="15" fill="#404CCF"/>
<path d="M313.17 25L307.935 19.7648C307.739 19.5691 307.74 19.2515 307.936 19.0565L308.646 18.3511C308.842 18.157 309.158 18.1575 309.352 18.3523L316.646 25.6464C316.842 25.8417 316.842 26.1583 316.646 26.3536L309.354 33.6464C309.158 33.8417 308.842 33.8417 308.646 33.6464L307.943 32.9432C307.748 32.7481 307.748 32.4318 307.943 32.2364L313.17 27L313.735 26.3193C313.889 26.1342 313.889 25.8658 313.735 25.6807L313.17 25Z" fill="white"/>
<path d="M22.6758 34L20.7891 29.1719H13.2656L11.3672 34H9.04688L15.7852 17.4883H18.3281L24.9609 34H22.6758ZM17.0273 19.1758L16.9219 19.5039C16.7266 20.1523 16.4375 20.9844 16.0547 22L13.9453 27.4258H20.1211L18 21.9766C17.7812 21.4375 17.5625 20.8281 17.3438 20.1484L17.0273 19.1758ZM28.2305 27.6016C28.2305 29.2891 28.4961 30.5391 29.0273 31.3516C29.5586 32.1641 30.3594 32.5703 31.4297 32.5703C32.1797 32.5703 32.8047 32.3672 33.3047 31.9609C33.8125 31.5547 34.125 30.9297 34.2422 30.0859L36.375 30.2266C36.2109 31.4453 35.6914 32.418 34.8164 33.1445C33.9414 33.8711 32.832 34.2344 31.4883 34.2344C29.7148 34.2344 28.3594 33.6758 27.4219 32.5586C26.4922 31.4336 26.0273 29.7969 26.0273 27.6484C26.0273 25.5156 26.4961 23.8906 27.4336 22.7734C28.3711 21.6484 29.7148 21.0859 31.4648 21.0859C32.7617 21.0859 33.8359 21.4219 34.6875 22.0938C35.5469 22.7656 36.0859 23.6914 36.3047 24.8711L34.1367 25.0352C34.0273 24.332 33.75 23.7734 33.3047 23.3594C32.8594 22.9453 32.2266 22.7383 31.4062 22.7383C30.2891 22.7383 29.4805 23.1094 28.9805 23.8516C28.4805 24.5938 28.2305 25.8438 28.2305 27.6016ZM43.5 33.9062C42.8047 34.0938 42.0938 34.1875 41.3672 34.1875C39.6797 34.1875 38.8359 33.2305 38.8359 31.3164V22.8555H37.3711V21.3203H38.918L39.5391 18.4844H40.9453V21.3203H43.2891V22.8555H40.9453V30.8594C40.9453 31.4688 41.043 31.8984 41.2383 32.1484C41.4414 32.3906 41.7891 32.5117 42.2812 32.5117C42.5625 32.5117 42.9688 32.457 43.5 32.3477V33.9062ZM45.293 18.625V16.6094H47.4023V18.625H45.293ZM45.293 34V21.3203H47.4023V34H45.293ZM56.2148 34H53.7188L49.1133 21.3203H51.3633L54.1523 29.5703C54.2539 29.8828 54.5234 30.8086 54.9609 32.3477L55.3711 30.9766L55.8281 29.5938L58.7109 21.3203H60.9492L56.2148 34ZM64.2656 28.1055C64.2656 29.5586 64.5664 30.6797 65.168 31.4688C65.7695 32.2578 66.6484 32.6523 67.8047 32.6523C68.7188 32.6523 69.4492 32.4688 69.9961 32.1016C70.5508 31.7344 70.9258 31.2695 71.1211 30.707L72.9727 31.2344C72.2148 33.2344 70.4922 34.2344 67.8047 34.2344C65.9297 34.2344 64.5 33.6758 63.5156 32.5586C62.5391 31.4414 62.0508 29.7812 62.0508 27.5781C62.0508 25.4844 62.5391 23.8789 63.5156 22.7617C64.5 21.6445 65.9023 21.0859 67.7227 21.0859C71.4492 21.0859 73.3125 23.332 73.3125 27.8242V28.1055H64.2656ZM71.1328 26.4883C71.0156 25.1523 70.6758 24.1797 70.1133 23.5703C69.5508 22.9531 68.7422 22.6445 67.6875 22.6445C66.6641 22.6445 65.8516 22.9883 65.25 23.6758C64.6562 24.3555 64.3359 25.293 64.2891 26.4883H71.1328ZM97.2539 25.5742C97.2539 27.2773 96.9219 28.7695 96.2578 30.0508C95.5938 31.3242 94.6523 32.3008 93.4336 32.9805C92.2148 33.6602 90.8086 34 89.2148 34H83.0391V17.4883H88.5C91.2969 17.4883 93.4531 18.1914 94.9688 19.5977C96.4922 20.9961 97.2539 22.9883 97.2539 25.5742ZM95.0039 25.5742C95.0039 23.5273 94.4414 21.9688 93.3164 20.8984C92.1992 19.8203 90.5781 19.2812 88.4531 19.2812H85.2773V32.207H88.957C90.168 32.207 91.2305 31.9414 92.1445 31.4102C93.0664 30.8789 93.7734 30.1133 94.2656 29.1133C94.7578 28.1133 95.0039 26.9336 95.0039 25.5742ZM101.648 28.1055C101.648 29.5586 101.949 30.6797 102.551 31.4688C103.152 32.2578 104.031 32.6523 105.188 32.6523C106.102 32.6523 106.832 32.4688 107.379 32.1016C107.934 31.7344 108.309 31.2695 108.504 30.707L110.355 31.2344C109.598 33.2344 107.875 34.2344 105.188 34.2344C103.312 34.2344 101.883 33.6758 100.898 32.5586C99.9219 31.4414 99.4336 29.7812 99.4336 27.5781C99.4336 25.4844 99.9219 23.8789 100.898 22.7617C101.883 21.6445 103.285 21.0859 105.105 21.0859C108.832 21.0859 110.695 23.332 110.695 27.8242V28.1055H101.648ZM108.516 26.4883C108.398 25.1523 108.059 24.1797 107.496 23.5703C106.934 22.9531 106.125 22.6445 105.07 22.6445C104.047 22.6445 103.234 22.9883 102.633 23.6758C102.039 24.3555 101.719 25.293 101.672 26.4883H108.516ZM118.957 34H116.461L111.855 21.3203H114.105L116.895 29.5703C116.996 29.8828 117.266 30.8086 117.703 32.3477L118.113 30.9766L118.57 29.5938L121.453 21.3203H123.691L118.957 34ZM125.379 18.625V16.6094H127.488V18.625H125.379ZM125.379 34V21.3203H127.488V34H125.379ZM132.34 27.6016C132.34 29.2891 132.605 30.5391 133.137 31.3516C133.668 32.1641 134.469 32.5703 135.539 32.5703C136.289 32.5703 136.914 32.3672 137.414 31.9609C137.922 31.5547 138.234 30.9297 138.352 30.0859L140.484 30.2266C140.32 31.4453 139.801 32.418 138.926 33.1445C138.051 33.8711 136.941 34.2344 135.598 34.2344C133.824 34.2344 132.469 33.6758 131.531 32.5586C130.602 31.4336 130.137 29.7969 130.137 27.6484C130.137 25.5156 130.605 23.8906 131.543 22.7734C132.48 21.6484 133.824 21.0859 135.574 21.0859C136.871 21.0859 137.945 21.4219 138.797 22.0938C139.656 22.7656 140.195 23.6914 140.414 24.8711L138.246 25.0352C138.137 24.332 137.859 23.7734 137.414 23.3594C136.969 22.9453 136.336 22.7383 135.516 22.7383C134.398 22.7383 133.59 23.1094 133.09 23.8516C132.59 24.5938 132.34 25.8438 132.34 27.6016ZM144.352 28.1055C144.352 29.5586 144.652 30.6797 145.254 31.4688C145.855 32.2578 146.734 32.6523 147.891 32.6523C148.805 32.6523 149.535 32.4688 150.082 32.1016C150.637 31.7344 151.012 31.2695 151.207 30.707L153.059 31.2344C152.301 33.2344 150.578 34.2344 147.891 34.2344C146.016 34.2344 144.586 33.6758 143.602 32.5586C142.625 31.4414 142.137 29.7812 142.137 27.5781C142.137 25.4844 142.625 23.8789 143.602 22.7617C144.586 21.6445 145.988 21.0859 147.809 21.0859C151.535 21.0859 153.398 23.332 153.398 27.8242V28.1055H144.352ZM151.219 26.4883C151.102 25.1523 150.762 24.1797 150.199 23.5703C149.637 22.9531 148.828 22.6445 147.773 22.6445C146.75 22.6445 145.938 22.9883 145.336 23.6758C144.742 24.3555 144.422 25.293 144.375 26.4883H151.219Z" fill="white"/>
</svg>
