<svg width="25" height="16" viewBox="0 0 25 16" fill="none" xmlns="http://www.w3.org/2000/svg">
<path d="M25 7.5C25 7.22386 24.7761 7 24.5 7H5.03711C4.59165 7 4.36857 6.46143 4.68355 6.14645L9.0652 1.76481C9.26095 1.56906 9.26038 1.25151 9.06394 1.05645L8.35355 0.351059C8.15809 0.156974 7.84247 0.157532 7.64769 0.352306L0.353553 7.64645C0.158291 7.84171 0.158291 8.15829 0.353553 8.35356L7.64645 15.6465C7.84171 15.8417 8.15829 15.8417 8.35355 15.6465L9.05676 14.9432C9.2519 14.7481 9.25204 14.4318 9.05708 14.2365L4.68171 9.85324C4.36716 9.53813 4.59034 9 5.03558 9H24.5C24.7761 9 25 8.77614 25 8.5V7.5Z" fill="#404CCF"/>
</svg>
