<svg width="335" height="56" viewBox="0 0 335 56" fill="none" xmlns="http://www.w3.org/2000/svg">
<rect width="335" height="56" rx="15" fill="#404CCF"/>
<path d="M313.17 25L307.935 19.7648C307.739 19.5691 307.74 19.2515 307.936 19.0565L308.646 18.3511C308.842 18.157 309.158 18.1575 309.352 18.3523L316.646 25.6464C316.842 25.8417 316.842 26.1583 316.646 26.3536L309.354 33.6464C309.158 33.8417 308.842 33.8417 308.646 33.6464L307.943 32.9432C307.748 32.7481 307.748 32.4318 307.943 32.2364L313.17 27L313.735 26.3193C313.889 26.1342 313.889 25.8658 313.735 25.6807L313.17 25Z" fill="white"/>
<path d="M18.2812 19.0703C16.4531 19.0703 15.0312 19.6602 14.0156 20.8398C13 22.0117 12.4922 23.6211 12.4922 25.668C12.4922 27.6914 13.0195 29.3203 14.0742 30.5547C15.1367 31.7812 16.5703 32.3945 18.375 32.3945C20.6875 32.3945 22.4258 31.25 23.5898 28.9609L25.418 29.875C24.7383 31.2969 23.7812 32.3789 22.5469 33.1211C21.3203 33.8633 19.8945 34.2344 18.2695 34.2344C16.6055 34.2344 15.1641 33.8906 13.9453 33.2031C12.7344 32.5078 11.8086 31.5195 11.168 30.2383C10.5352 28.9492 10.2188 27.4258 10.2188 25.668C10.2188 23.0352 10.9297 20.9727 12.3516 19.4805C13.7734 17.9883 15.7422 17.2422 18.2578 17.2422C20.0156 17.2422 21.4844 17.5859 22.6641 18.2734C23.8438 18.9609 24.7109 19.9805 25.2656 21.332L23.1445 22.0352C22.7617 21.0742 22.1445 20.3398 21.293 19.832C20.4492 19.3242 19.4453 19.0703 18.2812 19.0703ZM30.0586 23.4883C30.5117 22.6602 31.0547 22.0547 31.6875 21.6719C32.3281 21.2812 33.1367 21.0859 34.1133 21.0859C35.4883 21.0859 36.5 21.4297 37.1484 22.1172C37.8047 22.7969 38.1328 23.9414 38.1328 25.5508V34H36.0117V25.9609C36.0117 25.0703 35.9297 24.4102 35.7656 23.9805C35.6016 23.543 35.332 23.2227 34.957 23.0195C34.582 22.8164 34.0625 22.7148 33.3984 22.7148C32.4062 22.7148 31.6094 23.0586 31.0078 23.7461C30.4141 24.4336 30.1172 25.3594 30.1172 26.5234V34H28.0078V16.6094H30.1172V21.1328C30.1172 21.6094 30.1016 22.1016 30.0703 22.6094C30.0469 23.1172 30.0312 23.4102 30.0234 23.4883H30.0586ZM44.5547 34.2344C43.2812 34.2344 42.3242 33.8984 41.6836 33.2266C41.043 32.5547 40.7227 31.6328 40.7227 30.4609C40.7227 29.1484 41.1523 28.1406 42.0117 27.4375C42.8789 26.7344 44.2734 26.3594 46.1953 26.3125L49.043 26.2656V25.5742C49.043 24.543 48.8242 23.8047 48.3867 23.3594C47.9492 22.9141 47.2617 22.6914 46.3242 22.6914C45.3789 22.6914 44.6914 22.8516 44.2617 23.1719C43.832 23.4922 43.5742 24.0039 43.4883 24.707L41.2852 24.5078C41.6445 22.2266 43.3398 21.0859 46.3711 21.0859C47.9648 21.0859 49.1641 21.4531 49.9688 22.1875C50.7734 22.9141 51.1758 23.9688 51.1758 25.3516V30.8125C51.1758 31.4375 51.2578 31.9102 51.4219 32.2305C51.5859 32.543 51.8984 32.6992 52.3594 32.6992C52.5625 32.6992 52.793 32.6719 53.0508 32.6172V33.9297C52.5195 34.0547 51.9766 34.1172 51.4219 34.1172C50.6406 34.1172 50.0703 33.9141 49.7109 33.5078C49.3594 33.0938 49.1602 32.4492 49.1133 31.5742H49.043C48.5039 32.543 47.875 33.2305 47.1562 33.6367C46.4453 34.0352 45.5781 34.2344 44.5547 34.2344ZM45.0352 32.6523C45.8086 32.6523 46.4961 32.4766 47.0977 32.125C47.6992 31.7734 48.1719 31.293 48.5156 30.6836C48.8672 30.0664 49.043 29.4336 49.043 28.7852V27.7422L46.7344 27.7891C45.7422 27.8047 44.9883 27.9062 44.4727 28.0938C43.9648 28.2812 43.5742 28.5703 43.3008 28.9609C43.0273 29.3516 42.8906 29.8633 42.8906 30.4961C42.8906 31.1836 43.0742 31.7148 43.4414 32.0898C43.8164 32.4648 44.3477 32.6523 45.0352 32.6523ZM62.7305 34V25.9609C62.7305 25.125 62.6484 24.4766 62.4844 24.0156C62.3203 23.5547 62.0586 23.2227 61.6992 23.0195C61.3398 22.8164 60.8125 22.7148 60.1172 22.7148C59.1016 22.7148 58.3008 23.0625 57.7148 23.7578C57.1289 24.4531 56.8359 25.418 56.8359 26.6523V34H54.7266V24.0273C54.7266 22.5508 54.7031 21.6484 54.6562 21.3203H56.6484C56.6562 21.3594 56.6641 21.4648 56.6719 21.6367C56.6797 21.8086 56.6875 22.0078 56.6953 22.2344C56.7109 22.4531 56.7266 22.8711 56.7422 23.4883H56.7773C57.2617 22.6133 57.8203 21.9961 58.4531 21.6367C59.0938 21.2695 59.8867 21.0859 60.832 21.0859C62.2227 21.0859 63.2383 21.4336 63.8789 22.1289C64.5273 22.8164 64.8516 23.957 64.8516 25.5508V34H62.7305ZM72.8438 38.9805C71.4609 38.9805 70.3594 38.707 69.5391 38.1602C68.7188 37.6211 68.1914 36.8516 67.957 35.8516L70.0781 35.5469C70.2188 36.1328 70.5273 36.582 71.0039 36.8945C71.4883 37.2148 72.1211 37.375 72.9023 37.375C75.0039 37.375 76.0547 36.1445 76.0547 33.6836V31.6445H76.0312C75.6328 32.457 75.0859 33.0703 74.3906 33.4844C73.6953 33.8906 72.8828 34.0938 71.9531 34.0938C70.3984 34.0938 69.2539 33.5781 68.5195 32.5469C67.793 31.5156 67.4297 29.8945 67.4297 27.6836C67.4297 25.4414 67.8203 23.7891 68.6016 22.7266C69.3906 21.6562 70.5859 21.1211 72.1875 21.1211C73.0859 21.1211 73.8633 21.3281 74.5195 21.7422C75.1836 22.1484 75.6953 22.7305 76.0547 23.4883H76.0781C76.0781 23.2539 76.0938 22.8477 76.125 22.2695C76.1562 21.6914 76.1875 21.375 76.2188 21.3203H78.2227C78.1758 21.7422 78.1523 22.6172 78.1523 23.9453V33.6367C78.1523 37.1992 76.3828 38.9805 72.8438 38.9805ZM76.0547 27.6602C76.0547 26.6289 75.9141 25.7422 75.6328 25C75.3516 24.25 74.9531 23.6797 74.4375 23.2891C73.9297 22.8906 73.3516 22.6914 72.7031 22.6914C71.625 22.6914 70.8398 23.082 70.3477 23.8633C69.8555 24.6445 69.6094 25.9102 69.6094 27.6602C69.6094 29.3945 69.8398 30.6406 70.3008 31.3984C70.7617 32.1562 71.5508 32.5352 72.668 32.5352C73.332 32.5352 73.9219 32.3398 74.4375 31.9492C74.9531 31.5586 75.3516 31 75.6328 30.2734C75.9141 29.5391 76.0547 28.668 76.0547 27.6602ZM83.0156 28.1055C83.0156 29.5586 83.3164 30.6797 83.918 31.4688C84.5195 32.2578 85.3984 32.6523 86.5547 32.6523C87.4688 32.6523 88.1992 32.4688 88.7461 32.1016C89.3008 31.7344 89.6758 31.2695 89.8711 30.707L91.7227 31.2344C90.9648 33.2344 89.2422 34.2344 86.5547 34.2344C84.6797 34.2344 83.25 33.6758 82.2656 32.5586C81.2891 31.4414 80.8008 29.7812 80.8008 27.5781C80.8008 25.4844 81.2891 23.8789 82.2656 22.7617C83.25 21.6445 84.6523 21.0859 86.4727 21.0859C90.1992 21.0859 92.0625 23.332 92.0625 27.8242V28.1055H83.0156ZM89.8828 26.4883C89.7656 25.1523 89.4258 24.1797 88.8633 23.5703C88.3008 22.9531 87.4922 22.6445 86.4375 22.6445C85.4141 22.6445 84.6016 22.9883 84 23.6758C83.4062 24.3555 83.0859 25.293 83.0391 26.4883H89.8828ZM114.562 22.457C114.562 24.0195 114.051 25.2617 113.027 26.1836C112.012 27.1055 110.629 27.5664 108.879 27.5664H104.027V34H101.789V17.4883H108.738C110.59 17.4883 112.023 17.9219 113.039 18.7891C114.055 19.6562 114.562 20.8789 114.562 22.457ZM112.312 22.4805C112.312 20.3477 111.031 19.2812 108.469 19.2812H104.027V25.7969H108.562C111.062 25.7969 112.312 24.6914 112.312 22.4805ZM117.492 34V24.2734C117.492 23.3828 117.469 22.3984 117.422 21.3203H119.414C119.477 22.7578 119.508 23.6211 119.508 23.9102H119.555C119.891 22.8242 120.277 22.082 120.715 21.6836C121.152 21.2852 121.77 21.0859 122.566 21.0859C122.848 21.0859 123.133 21.125 123.422 21.2031V23.1367C123.141 23.0586 122.766 23.0195 122.297 23.0195C121.422 23.0195 120.754 23.3984 120.293 24.1562C119.832 24.9062 119.602 25.9844 119.602 27.3906V34H117.492ZM136.16 27.6484C136.16 29.8672 135.672 31.5195 134.695 32.6055C133.719 33.6914 132.301 34.2344 130.441 34.2344C128.59 34.2344 127.191 33.6719 126.246 32.5469C125.301 31.4141 124.828 29.7812 124.828 27.6484C124.828 23.2734 126.723 21.0859 130.512 21.0859C132.449 21.0859 133.875 21.6211 134.789 22.6914C135.703 23.7539 136.16 25.4062 136.16 27.6484ZM133.945 27.6484C133.945 25.8984 133.684 24.6289 133.16 23.8398C132.645 23.043 131.773 22.6445 130.547 22.6445C129.312 22.6445 128.418 23.0508 127.863 23.8633C127.316 24.668 127.043 25.9297 127.043 27.6484C127.043 29.3203 127.312 30.5781 127.852 31.4219C128.398 32.2578 129.254 32.6758 130.418 32.6758C131.684 32.6758 132.586 32.2695 133.125 31.457C133.672 30.6445 133.945 29.375 133.945 27.6484ZM141.41 22.8555V34H139.301V22.8555H137.52V21.3203H139.301V19.8906C139.301 18.7344 139.555 17.9023 140.062 17.3945C140.57 16.8867 141.348 16.6328 142.395 16.6328C142.98 16.6328 143.477 16.6797 143.883 16.7734V18.3789C143.531 18.3164 143.219 18.2852 142.945 18.2852C142.406 18.2852 142.016 18.4219 141.773 18.6953C141.531 18.9688 141.41 19.4648 141.41 20.1836V21.3203H143.883V22.8555H141.41ZM145.465 18.625V16.6094H147.574V18.625H145.465ZM145.465 34V21.3203H147.574V34H145.465ZM150.82 34V16.6094H152.93V34H150.82ZM157.781 28.1055C157.781 29.5586 158.082 30.6797 158.684 31.4688C159.285 32.2578 160.164 32.6523 161.32 32.6523C162.234 32.6523 162.965 32.4688 163.512 32.1016C164.066 31.7344 164.441 31.2695 164.637 30.707L166.488 31.2344C165.73 33.2344 164.008 34.2344 161.32 34.2344C159.445 34.2344 158.016 33.6758 157.031 32.5586C156.055 31.4414 155.566 29.7812 155.566 27.5781C155.566 25.4844 156.055 23.8789 157.031 22.7617C158.016 21.6445 159.418 21.0859 161.238 21.0859C164.965 21.0859 166.828 23.332 166.828 27.8242V28.1055H157.781ZM164.648 26.4883C164.531 25.1523 164.191 24.1797 163.629 23.5703C163.066 22.9531 162.258 22.6445 161.203 22.6445C160.18 22.6445 159.367 22.9883 158.766 23.6758C158.172 24.3555 157.852 25.293 157.805 26.4883H164.648Z" fill="white"/>
</svg>
