<svg width="335" height="56" viewBox="0 0 335 56" fill="none" xmlns="http://www.w3.org/2000/svg">
<rect width="335" height="56" rx="15" fill="#404CCF"/>
<path d="M313.17 25L307.935 19.7648C307.739 19.5691 307.74 19.2515 307.936 19.0565L308.646 18.3511C308.842 18.157 309.158 18.1575 309.352 18.3523L316.646 25.6464C316.842 25.8417 316.842 26.1583 316.646 26.3536L309.354 33.6464C309.158 33.8417 308.842 33.8417 308.646 33.6464L307.943 32.9432C307.748 32.7481 307.748 32.4318 307.943 32.2364L313.17 27L313.735 26.3193C313.889 26.1342 313.889 25.8658 313.735 25.6807L313.17 25Z" fill="white"/>
<path d="M18.2812 19.0703C16.4531 19.0703 15.0312 19.6602 14.0156 20.8398C13 22.0117 12.4922 23.6211 12.4922 25.668C12.4922 27.6914 13.0195 29.3203 14.0742 30.5547C15.1367 31.7812 16.5703 32.3945 18.375 32.3945C20.6875 32.3945 22.4258 31.25 23.5898 28.9609L25.418 29.875C24.7383 31.2969 23.7812 32.3789 22.5469 33.1211C21.3203 33.8633 19.8945 34.2344 18.2695 34.2344C16.6055 34.2344 15.1641 33.8906 13.9453 33.2031C12.7344 32.5078 11.8086 31.5195 11.168 30.2383C10.5352 28.9492 10.2188 27.4258 10.2188 25.668C10.2188 23.0352 10.9297 20.9727 12.3516 19.4805C13.7734 17.9883 15.7422 17.2422 18.2578 17.2422C20.0156 17.2422 21.4844 17.5859 22.6641 18.2734C23.8438 18.9609 24.7109 19.9805 25.2656 21.332L23.1445 22.0352C22.7617 21.0742 22.1445 20.3398 21.293 19.832C20.4492 19.3242 19.4453 19.0703 18.2812 19.0703ZM30.0586 23.4883C30.5117 22.6602 31.0547 22.0547 31.6875 21.6719C32.3281 21.2812 33.1367 21.0859 34.1133 21.0859C35.4883 21.0859 36.5 21.4297 37.1484 22.1172C37.8047 22.7969 38.1328 23.9414 38.1328 25.5508V34H36.0117V25.9609C36.0117 25.0703 35.9297 24.4102 35.7656 23.9805C35.6016 23.543 35.332 23.2227 34.957 23.0195C34.582 22.8164 34.0625 22.7148 33.3984 22.7148C32.4062 22.7148 31.6094 23.0586 31.0078 23.7461C30.4141 24.4336 30.1172 25.3594 30.1172 26.5234V34H28.0078V16.6094H30.1172V21.1328C30.1172 21.6094 30.1016 22.1016 30.0703 22.6094C30.0469 23.1172 30.0312 23.4102 30.0234 23.4883H30.0586ZM44.5547 34.2344C43.2812 34.2344 42.3242 33.8984 41.6836 33.2266C41.043 32.5547 40.7227 31.6328 40.7227 30.4609C40.7227 29.1484 41.1523 28.1406 42.0117 27.4375C42.8789 26.7344 44.2734 26.3594 46.1953 26.3125L49.043 26.2656V25.5742C49.043 24.543 48.8242 23.8047 48.3867 23.3594C47.9492 22.9141 47.2617 22.6914 46.3242 22.6914C45.3789 22.6914 44.6914 22.8516 44.2617 23.1719C43.832 23.4922 43.5742 24.0039 43.4883 24.707L41.2852 24.5078C41.6445 22.2266 43.3398 21.0859 46.3711 21.0859C47.9648 21.0859 49.1641 21.4531 49.9688 22.1875C50.7734 22.9141 51.1758 23.9688 51.1758 25.3516V30.8125C51.1758 31.4375 51.2578 31.9102 51.4219 32.2305C51.5859 32.543 51.8984 32.6992 52.3594 32.6992C52.5625 32.6992 52.793 32.6719 53.0508 32.6172V33.9297C52.5195 34.0547 51.9766 34.1172 51.4219 34.1172C50.6406 34.1172 50.0703 33.9141 49.7109 33.5078C49.3594 33.0938 49.1602 32.4492 49.1133 31.5742H49.043C48.5039 32.543 47.875 33.2305 47.1562 33.6367C46.4453 34.0352 45.5781 34.2344 44.5547 34.2344ZM45.0352 32.6523C45.8086 32.6523 46.4961 32.4766 47.0977 32.125C47.6992 31.7734 48.1719 31.293 48.5156 30.6836C48.8672 30.0664 49.043 29.4336 49.043 28.7852V27.7422L46.7344 27.7891C45.7422 27.8047 44.9883 27.9062 44.4727 28.0938C43.9648 28.2812 43.5742 28.5703 43.3008 28.9609C43.0273 29.3516 42.8906 29.8633 42.8906 30.4961C42.8906 31.1836 43.0742 31.7148 43.4414 32.0898C43.8164 32.4648 44.3477 32.6523 45.0352 32.6523ZM62.7305 34V25.9609C62.7305 25.125 62.6484 24.4766 62.4844 24.0156C62.3203 23.5547 62.0586 23.2227 61.6992 23.0195C61.3398 22.8164 60.8125 22.7148 60.1172 22.7148C59.1016 22.7148 58.3008 23.0625 57.7148 23.7578C57.1289 24.4531 56.8359 25.418 56.8359 26.6523V34H54.7266V24.0273C54.7266 22.5508 54.7031 21.6484 54.6562 21.3203H56.6484C56.6562 21.3594 56.6641 21.4648 56.6719 21.6367C56.6797 21.8086 56.6875 22.0078 56.6953 22.2344C56.7109 22.4531 56.7266 22.8711 56.7422 23.4883H56.7773C57.2617 22.6133 57.8203 21.9961 58.4531 21.6367C59.0938 21.2695 59.8867 21.0859 60.832 21.0859C62.2227 21.0859 63.2383 21.4336 63.8789 22.1289C64.5273 22.8164 64.8516 23.957 64.8516 25.5508V34H62.7305ZM72.8438 38.9805C71.4609 38.9805 70.3594 38.707 69.5391 38.1602C68.7188 37.6211 68.1914 36.8516 67.957 35.8516L70.0781 35.5469C70.2188 36.1328 70.5273 36.582 71.0039 36.8945C71.4883 37.2148 72.1211 37.375 72.9023 37.375C75.0039 37.375 76.0547 36.1445 76.0547 33.6836V31.6445H76.0312C75.6328 32.457 75.0859 33.0703 74.3906 33.4844C73.6953 33.8906 72.8828 34.0938 71.9531 34.0938C70.3984 34.0938 69.2539 33.5781 68.5195 32.5469C67.793 31.5156 67.4297 29.8945 67.4297 27.6836C67.4297 25.4414 67.8203 23.7891 68.6016 22.7266C69.3906 21.6562 70.5859 21.1211 72.1875 21.1211C73.0859 21.1211 73.8633 21.3281 74.5195 21.7422C75.1836 22.1484 75.6953 22.7305 76.0547 23.4883H76.0781C76.0781 23.2539 76.0938 22.8477 76.125 22.2695C76.1562 21.6914 76.1875 21.375 76.2188 21.3203H78.2227C78.1758 21.7422 78.1523 22.6172 78.1523 23.9453V33.6367C78.1523 37.1992 76.3828 38.9805 72.8438 38.9805ZM76.0547 27.6602C76.0547 26.6289 75.9141 25.7422 75.6328 25C75.3516 24.25 74.9531 23.6797 74.4375 23.2891C73.9297 22.8906 73.3516 22.6914 72.7031 22.6914C71.625 22.6914 70.8398 23.082 70.3477 23.8633C69.8555 24.6445 69.6094 25.9102 69.6094 27.6602C69.6094 29.3945 69.8398 30.6406 70.3008 31.3984C70.7617 32.1562 71.5508 32.5352 72.668 32.5352C73.332 32.5352 73.9219 32.3398 74.4375 31.9492C74.9531 31.5586 75.3516 31 75.6328 30.2734C75.9141 29.5391 76.0547 28.668 76.0547 27.6602ZM83.0156 28.1055C83.0156 29.5586 83.3164 30.6797 83.918 31.4688C84.5195 32.2578 85.3984 32.6523 86.5547 32.6523C87.4688 32.6523 88.1992 32.4688 88.7461 32.1016C89.3008 31.7344 89.6758 31.2695 89.8711 30.707L91.7227 31.2344C90.9648 33.2344 89.2422 34.2344 86.5547 34.2344C84.6797 34.2344 83.25 33.6758 82.2656 32.5586C81.2891 31.4414 80.8008 29.7812 80.8008 27.5781C80.8008 25.4844 81.2891 23.8789 82.2656 22.7617C83.25 21.6445 84.6523 21.0859 86.4727 21.0859C90.1992 21.0859 92.0625 23.332 92.0625 27.8242V28.1055H83.0156ZM89.8828 26.4883C89.7656 25.1523 89.4258 24.1797 88.8633 23.5703C88.3008 22.9531 87.4922 22.6445 86.4375 22.6445C85.4141 22.6445 84.6016 22.9883 84 23.6758C83.4062 24.3555 83.0859 25.293 83.0391 26.4883H89.8828ZM114.562 22.457C114.562 24.0195 114.051 25.2617 113.027 26.1836C112.012 27.1055 110.629 27.5664 108.879 27.5664H104.027V34H101.789V17.4883H108.738C110.59 17.4883 112.023 17.9219 113.039 18.7891C114.055 19.6562 114.562 20.8789 114.562 22.457ZM112.312 22.4805C112.312 20.3477 111.031 19.2812 108.469 19.2812H104.027V25.7969H108.562C111.062 25.7969 112.312 24.6914 112.312 22.4805ZM120.68 34.2344C119.406 34.2344 118.449 33.8984 117.809 33.2266C117.168 32.5547 116.848 31.6328 116.848 30.4609C116.848 29.1484 117.277 28.1406 118.137 27.4375C119.004 26.7344 120.398 26.3594 122.32 26.3125L125.168 26.2656V25.5742C125.168 24.543 124.949 23.8047 124.512 23.3594C124.074 22.9141 123.387 22.6914 122.449 22.6914C121.504 22.6914 120.816 22.8516 120.387 23.1719C119.957 23.4922 119.699 24.0039 119.613 24.707L117.41 24.5078C117.77 22.2266 119.465 21.0859 122.496 21.0859C124.09 21.0859 125.289 21.4531 126.094 22.1875C126.898 22.9141 127.301 23.9688 127.301 25.3516V30.8125C127.301 31.4375 127.383 31.9102 127.547 32.2305C127.711 32.543 128.023 32.6992 128.484 32.6992C128.688 32.6992 128.918 32.6719 129.176 32.6172V33.9297C128.645 34.0547 128.102 34.1172 127.547 34.1172C126.766 34.1172 126.195 33.9141 125.836 33.5078C125.484 33.0938 125.285 32.4492 125.238 31.5742H125.168C124.629 32.543 124 33.2305 123.281 33.6367C122.57 34.0352 121.703 34.2344 120.68 34.2344ZM121.16 32.6523C121.934 32.6523 122.621 32.4766 123.223 32.125C123.824 31.7734 124.297 31.293 124.641 30.6836C124.992 30.0664 125.168 29.4336 125.168 28.7852V27.7422L122.859 27.7891C121.867 27.8047 121.113 27.9062 120.598 28.0938C120.09 28.2812 119.699 28.5703 119.426 28.9609C119.152 29.3516 119.016 29.8633 119.016 30.4961C119.016 31.1836 119.199 31.7148 119.566 32.0898C119.941 32.4648 120.473 32.6523 121.16 32.6523ZM140.32 30.4961C140.32 31.6914 139.867 32.6133 138.961 33.2617C138.062 33.9102 136.801 34.2344 135.176 34.2344C133.598 34.2344 132.379 33.9766 131.52 33.4609C130.668 32.9375 130.113 32.125 129.855 31.0234L131.719 30.6602C131.898 31.3398 132.27 31.8398 132.832 32.1602C133.395 32.4727 134.176 32.6289 135.176 32.6289C136.246 32.6289 137.027 32.4648 137.52 32.1367C138.02 31.8086 138.27 31.3164 138.27 30.6602C138.27 30.1602 138.098 29.7539 137.754 29.4414C137.41 29.1289 136.855 28.8711 136.09 28.668L134.578 28.2695C133.367 27.957 132.504 27.6523 131.988 27.3555C131.48 27.0508 131.082 26.6836 130.793 26.2539C130.504 25.8242 130.359 25.2969 130.359 24.6719C130.359 23.5156 130.77 22.6367 131.59 22.0352C132.418 21.4258 133.621 21.1211 135.199 21.1211C136.598 21.1211 137.707 21.3672 138.527 21.8594C139.355 22.3516 139.879 23.1406 140.098 24.2266L138.199 24.4609C138.082 23.8984 137.766 23.4688 137.25 23.1719C136.742 22.8672 136.059 22.7148 135.199 22.7148C134.246 22.7148 133.543 22.8594 133.09 23.1484C132.637 23.4375 132.41 23.875 132.41 24.4609C132.41 24.8203 132.504 25.1172 132.691 25.3516C132.879 25.5859 133.156 25.7852 133.523 25.9492C133.891 26.1133 134.664 26.3398 135.844 26.6289C136.961 26.9102 137.766 27.1719 138.258 27.4141C138.75 27.6484 139.137 27.9102 139.418 28.1992C139.707 28.4883 139.93 28.8242 140.086 29.207C140.242 29.582 140.32 30.0117 140.32 30.4961ZM152.32 30.4961C152.32 31.6914 151.867 32.6133 150.961 33.2617C150.062 33.9102 148.801 34.2344 147.176 34.2344C145.598 34.2344 144.379 33.9766 143.52 33.4609C142.668 32.9375 142.113 32.125 141.855 31.0234L143.719 30.6602C143.898 31.3398 144.27 31.8398 144.832 32.1602C145.395 32.4727 146.176 32.6289 147.176 32.6289C148.246 32.6289 149.027 32.4648 149.52 32.1367C150.02 31.8086 150.27 31.3164 150.27 30.6602C150.27 30.1602 150.098 29.7539 149.754 29.4414C149.41 29.1289 148.855 28.8711 148.09 28.668L146.578 28.2695C145.367 27.957 144.504 27.6523 143.988 27.3555C143.48 27.0508 143.082 26.6836 142.793 26.2539C142.504 25.8242 142.359 25.2969 142.359 24.6719C142.359 23.5156 142.77 22.6367 143.59 22.0352C144.418 21.4258 145.621 21.1211 147.199 21.1211C148.598 21.1211 149.707 21.3672 150.527 21.8594C151.355 22.3516 151.879 23.1406 152.098 24.2266L150.199 24.4609C150.082 23.8984 149.766 23.4688 149.25 23.1719C148.742 22.8672 148.059 22.7148 147.199 22.7148C146.246 22.7148 145.543 22.8594 145.09 23.1484C144.637 23.4375 144.41 23.875 144.41 24.4609C144.41 24.8203 144.504 25.1172 144.691 25.3516C144.879 25.5859 145.156 25.7852 145.523 25.9492C145.891 26.1133 146.664 26.3398 147.844 26.6289C148.961 26.9102 149.766 27.1719 150.258 27.4141C150.75 27.6484 151.137 27.9102 151.418 28.1992C151.707 28.4883 151.93 28.8242 152.086 29.207C152.242 29.582 152.32 30.0117 152.32 30.4961ZM166.945 34H164.496L162.281 25.0352L161.859 23.0547C161.789 23.4062 161.68 23.9141 161.531 24.5781C161.383 25.2344 160.586 28.375 159.141 34H156.703L153.152 21.3203H155.238L157.383 29.9336C157.438 30.1211 157.605 30.8945 157.887 32.2539L158.086 31.3867L160.734 21.3203H162.996L165.211 30.0273L165.75 32.2539L166.113 30.625L168.516 21.3203H170.578L166.945 34ZM182.871 27.6484C182.871 29.8672 182.383 31.5195 181.406 32.6055C180.43 33.6914 179.012 34.2344 177.152 34.2344C175.301 34.2344 173.902 33.6719 172.957 32.5469C172.012 31.4141 171.539 29.7812 171.539 27.6484C171.539 23.2734 173.434 21.0859 177.223 21.0859C179.16 21.0859 180.586 21.6211 181.5 22.6914C182.414 23.7539 182.871 25.4062 182.871 27.6484ZM180.656 27.6484C180.656 25.8984 180.395 24.6289 179.871 23.8398C179.355 23.043 178.484 22.6445 177.258 22.6445C176.023 22.6445 175.129 23.0508 174.574 23.8633C174.027 24.668 173.754 25.9297 173.754 27.6484C173.754 29.3203 174.023 30.5781 174.562 31.4219C175.109 32.2578 175.965 32.6758 177.129 32.6758C178.395 32.6758 179.297 32.2695 179.836 31.457C180.383 30.6445 180.656 29.375 180.656 27.6484ZM185.555 34V24.2734C185.555 23.3828 185.531 22.3984 185.484 21.3203H187.477C187.539 22.7578 187.57 23.6211 187.57 23.9102H187.617C187.953 22.8242 188.34 22.082 188.777 21.6836C189.215 21.2852 189.832 21.0859 190.629 21.0859C190.91 21.0859 191.195 21.125 191.484 21.2031V23.1367C191.203 23.0586 190.828 23.0195 190.359 23.0195C189.484 23.0195 188.816 23.3984 188.355 24.1562C187.895 24.9062 187.664 25.9844 187.664 27.3906V34H185.555ZM201.504 31.9609C201.113 32.7734 200.594 33.3555 199.945 33.707C199.305 34.0586 198.508 34.2344 197.555 34.2344C195.953 34.2344 194.773 33.6953 194.016 32.6172C193.266 31.5391 192.891 29.9062 192.891 27.7188C192.891 23.2969 194.445 21.0859 197.555 21.0859C198.516 21.0859 199.316 21.2617 199.957 21.6133C200.598 21.9648 201.113 22.5234 201.504 23.2891H201.527L201.504 21.8711V16.6094H203.613V31.3867C203.613 32.707 203.637 33.5781 203.684 34H201.668C201.645 33.875 201.617 33.5859 201.586 33.1328C201.562 32.6797 201.551 32.2891 201.551 31.9609H201.504ZM195.105 27.6484C195.105 29.4219 195.34 30.6914 195.809 31.457C196.277 32.2227 197.039 32.6055 198.094 32.6055C199.289 32.6055 200.156 32.1914 200.695 31.3633C201.234 30.5352 201.504 29.25 201.504 27.5078C201.504 25.8281 201.234 24.5977 200.695 23.8164C200.156 23.0352 199.297 22.6445 198.117 22.6445C197.055 22.6445 196.285 23.0391 195.809 23.8281C195.34 24.6094 195.105 25.8828 195.105 27.6484Z" fill="white"/>
</svg>
