<svg width="335" height="56" viewBox="0 0 335 56" fill="none" xmlns="http://www.w3.org/2000/svg">
<rect width="335" height="56" rx="15" fill="#404CCF"/>
<path d="M313.17 25L307.935 19.7648C307.739 19.5691 307.74 19.2515 307.936 19.0565L308.646 18.3511C308.842 18.157 309.158 18.1575 309.352 18.3523L316.646 25.6464C316.842 25.8417 316.842 26.1583 316.646 26.3536L309.354 33.6464C309.158 33.8417 308.842 33.8417 308.646 33.6464L307.943 32.9432C307.748 32.7481 307.748 32.4318 307.943 32.2364L313.17 27L313.735 26.3193C313.889 26.1342 313.889 25.8658 313.735 25.6807L313.17 25Z" fill="white"/>
<path d="M18.375 32.3945C20.6875 32.3945 22.4258 31.25 23.5898 28.9609L25.418 29.875C24.7383 31.2969 23.7812 32.3789 22.5469 33.1211C21.3203 33.8633 19.8945 34.2344 18.2695 34.2344C16.5977 34.2344 15.1602 33.8867 13.957 33.1914C12.7539 32.4961 11.8281 31.5078 11.1797 30.2266C10.5391 28.9375 10.2188 27.418 10.2188 25.668C10.2188 23.9102 10.5391 22.4023 11.1797 21.1445C11.8203 19.8867 12.7422 18.9219 13.9453 18.25C15.1484 17.5781 16.5859 17.2422 18.2578 17.2422C20.0156 17.2422 21.4844 17.5859 22.6641 18.2734C23.8438 18.9609 24.7109 19.9805 25.2656 21.332L23.1445 22.0352C22.7617 21.0742 22.1445 20.3398 21.293 19.832C20.4492 19.3242 19.4453 19.0703 18.2812 19.0703C16.4531 19.0703 15.0312 19.6602 14.0156 20.8398C13 22.0117 12.4922 23.6211 12.4922 25.668C12.4922 27.0117 12.7305 28.1914 13.207 29.207C13.6914 30.2148 14.3711 31 15.2461 31.5625C16.1289 32.1172 17.1719 32.3945 18.375 32.3945ZM30.0586 23.4883C30.5117 22.6602 31.0547 22.0547 31.6875 21.6719C32.3281 21.2812 33.1367 21.0859 34.1133 21.0859C35.4883 21.0859 36.5 21.4453 37.1484 22.1641C37.8047 22.875 38.1328 24.0039 38.1328 25.5508V34H36.0117V25.9609C36.0117 24.8125 35.8086 23.9844 35.4023 23.4766C35.0039 22.9688 34.3359 22.7148 33.3984 22.7148C32.4062 22.7148 31.6094 23.0586 31.0078 23.7461C30.4141 24.4336 30.1172 25.3594 30.1172 26.5234V34H28.0078V16.6094H30.1172V21.1328C30.1172 21.4453 30.1094 21.7773 30.0938 22.1289C30.0781 22.4727 30.0625 22.7734 30.0469 23.0312C30.0391 23.2812 30.0312 23.4336 30.0234 23.4883H30.0586ZM44.5547 34.2344C43.2812 34.2344 42.3242 33.8984 41.6836 33.2266C41.043 32.5547 40.7227 31.6328 40.7227 30.4609C40.7227 29.1484 41.1523 28.1406 42.0117 27.4375C42.8789 26.7344 44.2734 26.3594 46.1953 26.3125L49.043 26.2656V25.5742C49.043 24.543 48.8242 23.8047 48.3867 23.3594C47.9492 22.9141 47.2617 22.6914 46.3242 22.6914C45.3789 22.6914 44.6914 22.8516 44.2617 23.1719C43.832 23.4922 43.5742 24.0039 43.4883 24.707L41.2852 24.5078C41.6445 22.2266 43.3398 21.0859 46.3711 21.0859C47.9648 21.0859 49.1641 21.4531 49.9688 22.1875C50.7734 22.9141 51.1758 23.9688 51.1758 25.3516V30.8125C51.1758 31.4375 51.2578 31.9102 51.4219 32.2305C51.5859 32.543 51.8984 32.6992 52.3594 32.6992C52.5781 32.6992 52.8086 32.6719 53.0508 32.6172V33.9297C52.7852 33.9922 52.5156 34.0391 52.2422 34.0703C51.9688 34.1016 51.6953 34.1172 51.4219 34.1172C50.6406 34.1172 50.0703 33.9141 49.7109 33.5078C49.3594 33.0938 49.1602 32.4492 49.1133 31.5742H49.043C48.5039 32.543 47.875 33.2305 47.1562 33.6367C46.4453 34.0352 45.5781 34.2344 44.5547 34.2344ZM49.043 27.7422L46.7344 27.7891C45.75 27.7969 45 27.8984 44.4844 28.0938C43.9688 28.2812 43.5742 28.5703 43.3008 28.9609C43.0273 29.3516 42.8906 29.8633 42.8906 30.4961C42.8906 31.1836 43.0742 31.7148 43.4414 32.0898C43.8164 32.4648 44.3477 32.6523 45.0352 32.6523C45.8164 32.6523 46.5039 32.4766 47.0977 32.125C47.6992 31.7734 48.1719 31.293 48.5156 30.6836C48.8672 30.0664 49.043 29.4336 49.043 28.7852V27.7422ZM56.8359 26.6523V34H54.7266V24.0273C54.7266 23.2852 54.7188 22.6914 54.7031 22.2461C54.6953 21.793 54.6797 21.4844 54.6562 21.3203H56.6484C56.6641 21.4688 56.6758 21.6562 56.6836 21.8828C56.6992 22.1094 56.7109 22.3594 56.7188 22.6328C56.7266 22.9062 56.7344 23.1914 56.7422 23.4883H56.7773C57.2617 22.6133 57.8203 21.9961 58.4531 21.6367C59.0938 21.2695 59.8867 21.0859 60.832 21.0859C62.2227 21.0859 63.2383 21.4414 63.8789 22.1523C64.5273 22.8633 64.8516 23.9961 64.8516 25.5508V34H62.7305V25.9609C62.7305 24.75 62.5352 23.9062 62.1445 23.4297C61.7539 22.9531 61.0781 22.7148 60.1172 22.7148C59.1016 22.7148 58.3008 23.0625 57.7148 23.7578C57.1289 24.4531 56.8359 25.418 56.8359 26.6523ZM72.8438 38.9805C71.4609 38.9805 70.3594 38.707 69.5391 38.1602C68.7188 37.6211 68.1914 36.8516 67.957 35.8516L70.0781 35.5469C70.2188 36.1328 70.5273 36.582 71.0039 36.8945C71.4883 37.2148 72.1211 37.375 72.9023 37.375C73.9492 37.375 74.7344 37.0664 75.2578 36.4492C75.7891 35.832 76.0547 34.9102 76.0547 33.6836V31.6445H76.0312C75.6328 32.457 75.0859 33.0703 74.3906 33.4844C73.6953 33.8906 72.8828 34.0938 71.9531 34.0938C70.3984 34.0938 69.2539 33.5781 68.5195 32.5469C67.793 31.5156 67.4297 29.8945 67.4297 27.6836C67.4297 25.4414 67.8203 23.7891 68.6016 22.7266C69.3906 21.6562 70.5859 21.1211 72.1875 21.1211C73.0859 21.1211 73.8633 21.3281 74.5195 21.7422C75.1836 22.1484 75.6953 22.7305 76.0547 23.4883H76.0781C76.0781 23.332 76.0859 23.0898 76.1016 22.7617C76.1172 22.4258 76.1367 22.1094 76.1602 21.8125C76.1836 21.5156 76.2031 21.3516 76.2188 21.3203H78.2227C78.1758 21.7422 78.1523 22.6172 78.1523 23.9453V33.6367C78.1523 35.418 77.7109 36.7539 76.8281 37.6445C75.9453 38.5352 74.6172 38.9805 72.8438 38.9805ZM76.0547 27.6602C76.0547 26.1211 75.7383 24.9102 75.1055 24.0273C74.4805 23.1367 73.6797 22.6914 72.7031 22.6914C71.625 22.6914 70.8398 23.082 70.3477 23.8633C69.8555 24.6445 69.6094 25.9102 69.6094 27.6602C69.6094 29.3945 69.8398 30.6406 70.3008 31.3984C70.7617 32.1562 71.5508 32.5352 72.668 32.5352C73.668 32.5352 74.4805 32.1016 75.1055 31.2344C75.7383 30.3594 76.0547 29.168 76.0547 27.6602ZM83.0156 28.1055C83.0156 29.5586 83.3164 30.6797 83.918 31.4688C84.5195 32.2578 85.3984 32.6523 86.5547 32.6523C87.4688 32.6523 88.1992 32.4688 88.7461 32.1016C89.3008 31.7344 89.6758 31.2695 89.8711 30.707L91.7227 31.2344C90.9648 33.2344 89.2422 34.2344 86.5547 34.2344C84.6797 34.2344 83.25 33.6758 82.2656 32.5586C81.2891 31.4414 80.8008 29.7812 80.8008 27.5781C80.8008 25.4844 81.2891 23.8789 82.2656 22.7617C83.25 21.6445 84.6523 21.0859 86.4727 21.0859C88.3398 21.0859 89.7383 21.6484 90.668 22.7734C91.5977 23.8984 92.0625 25.582 92.0625 27.8242V28.1055H83.0156ZM89.8828 26.4883C89.7656 25.1523 89.4258 24.1797 88.8633 23.5703C88.3008 22.9531 87.4922 22.6445 86.4375 22.6445C85.4141 22.6445 84.6016 22.9883 84 23.6758C83.4062 24.3555 83.0859 25.293 83.0391 26.4883H89.8828ZM114.562 22.457C114.562 23.4961 114.332 24.3984 113.871 25.1641C113.41 25.9297 112.754 26.5234 111.902 26.9453C111.059 27.3594 110.051 27.5664 108.879 27.5664H104.027V34H101.789V17.4883H108.738C110.59 17.4883 112.023 17.9219 113.039 18.7891C114.055 19.6562 114.562 20.8789 114.562 22.457ZM112.312 22.4805C112.312 20.3477 111.031 19.2812 108.469 19.2812H104.027V25.7969H108.562C109.812 25.7969 110.75 25.5234 111.375 24.9766C112 24.4219 112.312 23.5898 112.312 22.4805ZM119.543 16.6094V18.625H117.434V16.6094H119.543ZM119.543 21.3203V34H117.434V21.3203H119.543ZM124.945 26.6523V34H122.836V24.0273C122.836 23.2852 122.828 22.6914 122.812 22.2461C122.805 21.793 122.789 21.4844 122.766 21.3203H124.758C124.773 21.4688 124.785 21.6562 124.793 21.8828C124.809 22.1094 124.82 22.3594 124.828 22.6328C124.836 22.9062 124.844 23.1914 124.852 23.4883H124.887C125.371 22.6133 125.93 21.9961 126.562 21.6367C127.203 21.2695 127.996 21.0859 128.941 21.0859C130.332 21.0859 131.348 21.4414 131.988 22.1523C132.637 22.8633 132.961 23.9961 132.961 25.5508V34H130.84V25.9609C130.84 24.75 130.645 23.9062 130.254 23.4297C129.863 22.9531 129.188 22.7148 128.227 22.7148C127.211 22.7148 126.41 23.0625 125.824 23.7578C125.238 24.4531 124.945 25.418 124.945 26.6523Z" fill="white"/>
</svg>
