<svg width="321" height="52" viewBox="0 0 321 52" fill="none" xmlns="http://www.w3.org/2000/svg">
<rect width="321" height="51.9137" rx="12" fill="#404CCF"/>
<path d="M126.766 20.5586C125.243 20.5586 124.058 21.0501 123.211 22.0332C122.365 23.0098 121.942 24.3509 121.942 26.0566C121.942 27.7428 122.381 29.1003 123.26 30.1289C124.146 31.151 125.34 31.6621 126.844 31.6621C128.771 31.6621 130.22 30.7083 131.19 28.8008L132.713 29.5625C132.147 30.7474 131.349 31.6491 130.321 32.2676C129.299 32.8861 128.11 33.1953 126.756 33.1953C125.37 33.1953 124.168 32.9089 123.153 32.3359C122.144 31.7565 121.372 30.9329 120.838 29.8652C120.311 28.791 120.047 27.5215 120.047 26.0566C120.047 23.8626 120.64 22.1439 121.825 20.9004C123.01 19.6569 124.65 19.0352 126.746 19.0352C128.211 19.0352 129.435 19.3216 130.418 19.8945C131.401 20.4674 132.124 21.3171 132.586 22.4434L130.819 23.0293C130.5 22.2285 129.985 21.6165 129.276 21.1934C128.573 20.7702 127.736 20.5586 126.766 20.5586ZM144.168 27.707C144.168 29.556 143.761 30.9329 142.947 31.8379C142.133 32.7428 140.952 33.1953 139.402 33.1953C137.859 33.1953 136.694 32.7266 135.906 31.7891C135.118 30.8451 134.725 29.4844 134.725 27.707C134.725 24.0612 136.303 22.2383 139.461 22.2383C141.076 22.2383 142.264 22.6842 143.025 23.5762C143.787 24.4616 144.168 25.8385 144.168 27.707ZM142.322 27.707C142.322 26.2487 142.104 25.1908 141.668 24.5332C141.238 23.8691 140.512 23.5371 139.49 23.5371C138.462 23.5371 137.716 23.8757 137.254 24.5527C136.798 25.2233 136.57 26.2747 136.57 27.707C136.57 29.1003 136.795 30.1484 137.244 30.8516C137.7 31.5482 138.413 31.8965 139.383 31.8965C140.437 31.8965 141.189 31.5579 141.639 30.8809C142.094 30.2038 142.322 29.1458 142.322 27.707ZM153.474 33V26.3008C153.474 25.6042 153.406 25.0638 153.269 24.6797C153.132 24.2956 152.914 24.0189 152.615 23.8496C152.315 23.6803 151.876 23.5957 151.296 23.5957C150.45 23.5957 149.783 23.8854 149.295 24.4648C148.806 25.0443 148.562 25.8483 148.562 26.877V33H146.804V24.6895C146.804 23.459 146.785 22.707 146.746 22.4336H148.406C148.412 22.4661 148.419 22.554 148.425 22.6973C148.432 22.8405 148.438 23.0065 148.445 23.1953C148.458 23.3776 148.471 23.7259 148.484 24.2402H148.513C148.917 23.5111 149.382 22.9967 149.91 22.6973C150.444 22.3913 151.104 22.2383 151.892 22.2383C153.051 22.2383 153.897 22.528 154.431 23.1074C154.972 23.6803 155.242 24.6309 155.242 25.959V33H153.474ZM162.361 32.9219C161.781 33.0781 161.189 33.1562 160.583 33.1562C159.177 33.1562 158.474 32.3587 158.474 30.7637V23.7129H157.253V22.4336H158.542L159.06 20.0703H160.232V22.4336H162.185V23.7129H160.232V30.3828C160.232 30.8906 160.313 31.2487 160.476 31.457C160.645 31.6589 160.935 31.7598 161.345 31.7598C161.579 31.7598 161.918 31.7142 162.361 31.623V32.9219ZM164.255 20.1875V18.5078H166.012V20.1875H164.255ZM164.255 33V22.4336H166.012V33H164.255ZM175.827 33V26.3008C175.827 25.6042 175.758 25.0638 175.621 24.6797C175.485 24.2956 175.267 24.0189 174.967 23.8496C174.668 23.6803 174.228 23.5957 173.649 23.5957C172.802 23.5957 172.135 23.8854 171.647 24.4648C171.159 25.0443 170.914 25.8483 170.914 26.877V33H169.157V24.6895C169.157 23.459 169.137 22.707 169.098 22.4336H170.758C170.765 22.4661 170.771 22.554 170.778 22.6973C170.784 22.8405 170.791 23.0065 170.797 23.1953C170.81 23.3776 170.823 23.7259 170.836 24.2402H170.866C171.269 23.5111 171.735 22.9967 172.262 22.6973C172.796 22.3913 173.457 22.2383 174.245 22.2383C175.403 22.2383 176.25 22.528 176.784 23.1074C177.324 23.6803 177.594 24.6309 177.594 25.959V33H175.827ZM182.369 22.4336V29.1328C182.369 29.8294 182.438 30.3698 182.574 30.7539C182.711 31.138 182.929 31.4147 183.229 31.584C183.528 31.7533 183.967 31.8379 184.547 31.8379C185.393 31.8379 186.061 31.5482 186.549 30.9688C187.037 30.3893 187.281 29.5853 187.281 28.5566V22.4336H189.039V30.7441C189.039 31.9746 189.059 32.7266 189.098 33H187.438C187.431 32.9674 187.424 32.8796 187.418 32.7363C187.411 32.5931 187.402 32.4303 187.389 32.248C187.382 32.0592 187.372 31.7077 187.359 31.1934H187.33C186.926 31.9225 186.458 32.4401 185.924 32.7461C185.396 33.0456 184.739 33.1953 183.951 33.1953C182.792 33.1953 181.943 32.9089 181.402 32.3359C180.868 31.7565 180.602 30.8027 180.602 29.4746V22.4336H182.369ZM193.531 28.0879C193.531 29.2988 193.782 30.2331 194.283 30.8906C194.784 31.5482 195.517 31.877 196.48 31.877C197.242 31.877 197.851 31.724 198.306 31.418C198.768 31.112 199.081 30.7246 199.244 30.2559L200.787 30.6953C200.155 32.362 198.72 33.1953 196.48 33.1953C194.918 33.1953 193.726 32.7298 192.906 31.7988C192.092 30.8678 191.685 29.4844 191.685 27.6484C191.685 25.9036 192.092 24.5658 192.906 23.6348C193.726 22.7038 194.895 22.2383 196.412 22.2383C199.517 22.2383 201.07 24.11 201.07 27.8535V28.0879H193.531ZM199.254 26.7402C199.156 25.627 198.873 24.8164 198.404 24.3086C197.935 23.7943 197.261 23.5371 196.382 23.5371C195.53 23.5371 194.852 23.8236 194.351 24.3965C193.856 24.9629 193.589 25.7441 193.55 26.7402H199.254Z" fill="white"/>
</svg>
