<svg width="321" height="52" viewBox="0 0 321 52" fill="none" xmlns="http://www.w3.org/2000/svg">
<rect width="321" height="51.9137" rx="12" fill="#404CCF"/>
<path d="M47.1336 33H45.2L39.5848 19.2402H41.5477L45.3562 28.9277L46.1766 31.3594L46.9969 28.9277L50.7859 19.2402H52.7488L47.1336 33ZM54.8187 28.0879C54.8187 29.2988 55.0694 30.2331 55.5707 30.8906C56.072 31.5482 56.8044 31.877 57.768 31.877C58.5297 31.877 59.1384 31.724 59.5941 31.418C60.0564 31.112 60.3689 30.7246 60.5316 30.2559L62.0746 30.6953C61.4431 32.362 60.0075 33.1953 57.768 33.1953C56.2055 33.1953 55.0141 32.7298 54.1937 31.7988C53.3799 30.8678 52.973 29.4844 52.973 27.6484C52.973 25.9036 53.3799 24.5658 54.1937 23.6348C55.0141 22.7038 56.1827 22.2383 57.6996 22.2383C60.8051 22.2383 62.3578 24.11 62.3578 27.8535V28.0879H54.8187ZM60.5414 26.7402C60.4437 25.627 60.1605 24.8164 59.6918 24.3086C59.223 23.7943 58.5492 23.5371 57.6703 23.5371C56.8174 23.5371 56.1404 23.8236 55.6391 24.3965C55.1443 24.9629 54.8773 25.7441 54.8383 26.7402H60.5414ZM65.043 33V24.8945C65.043 24.1523 65.0234 23.332 64.9844 22.4336H66.6445C66.6966 23.6315 66.7227 24.3509 66.7227 24.5918H66.7617C67.0417 23.6868 67.3639 23.0684 67.7285 22.7363C68.0931 22.4043 68.6074 22.2383 69.2715 22.2383C69.5059 22.2383 69.7435 22.2708 69.9844 22.3359V23.9473C69.75 23.8822 69.4375 23.8496 69.0469 23.8496C68.3177 23.8496 67.7611 24.1654 67.3769 24.7969C66.9928 25.4219 66.8008 26.3203 66.8008 27.4922V33H65.043ZM72.0543 20.1875V18.5078H73.8121V20.1875H72.0543ZM72.0543 33V22.4336H73.8121V33H72.0543ZM79.0949 23.7129V33H77.3371V23.7129H75.8527V22.4336H77.3371V21.2422C77.3371 20.2786 77.5487 19.5853 77.9719 19.1621C78.395 18.7389 79.0428 18.5273 79.9152 18.5273C80.4035 18.5273 80.8169 18.5664 81.1555 18.6445V19.9824C80.8625 19.9303 80.6021 19.9043 80.3742 19.9043C79.925 19.9043 79.5995 20.0182 79.3977 20.2461C79.1958 20.474 79.0949 20.8874 79.0949 21.4863V22.4336H81.1555V23.7129H79.0949ZM83.4012 37.1504C82.9194 37.1504 82.5158 37.1146 82.1902 37.043V35.7246C82.4376 35.7637 82.7111 35.7832 83.0105 35.7832C84.1043 35.7832 84.9702 34.9792 85.6082 33.3711L85.7742 32.9512L81.5848 22.4336H83.4598L85.6863 28.2734C85.7189 28.3646 85.7579 28.4753 85.8035 28.6055C85.8491 28.7292 85.9956 29.1523 86.243 29.875C86.4904 30.5977 86.6238 31.0013 86.6434 31.0859L87.327 29.1621L89.6414 22.4336H91.4969L87.4344 33C86.9982 34.1263 86.5913 34.9629 86.2137 35.5098C85.8361 36.0632 85.4161 36.4733 84.9539 36.7402C84.4982 37.0137 83.9806 37.1504 83.4012 37.1504ZM101.945 33.1953C100.884 33.1953 100.087 32.9154 99.5527 32.3555C99.0189 31.7956 98.7519 31.0273 98.7519 30.0508C98.7519 28.957 99.11 28.1172 99.8262 27.5312C100.549 26.9453 101.711 26.6328 103.312 26.5938L105.686 26.5547V25.9785C105.686 25.1191 105.503 24.5039 105.139 24.1328C104.774 23.7617 104.201 23.5762 103.42 23.5762C102.632 23.5762 102.059 23.7096 101.701 23.9766C101.343 24.2435 101.128 24.6699 101.057 25.2559L99.2207 25.0898C99.5202 23.1888 100.933 22.2383 103.459 22.2383C104.787 22.2383 105.786 22.5443 106.457 23.1562C107.128 23.7617 107.463 24.6406 107.463 25.793V30.3438C107.463 30.8646 107.531 31.2585 107.668 31.5254C107.805 31.7858 108.065 31.916 108.449 31.916C108.618 31.916 108.811 31.8932 109.025 31.8477V32.9414C108.583 33.0456 108.13 33.0977 107.668 33.0977C107.017 33.0977 106.542 32.9284 106.242 32.5898C105.949 32.2448 105.783 31.7077 105.744 30.9785H105.686C105.236 31.7858 104.712 32.3587 104.113 32.6973C103.521 33.0293 102.798 33.1953 101.945 33.1953ZM102.346 31.877C102.99 31.877 103.563 31.7305 104.064 31.4375C104.566 31.1445 104.96 30.7441 105.246 30.2363C105.539 29.722 105.686 29.1947 105.686 28.6543V27.7852L103.762 27.8242C102.935 27.8372 102.307 27.9219 101.877 28.0781C101.454 28.2344 101.128 28.4753 100.9 28.8008C100.673 29.1263 100.559 29.5527 100.559 30.0801C100.559 30.653 100.712 31.0957 101.018 31.4082C101.33 31.7207 101.773 31.877 102.346 31.877ZM117.492 33V26.3008C117.492 25.6042 117.423 25.0638 117.287 24.6797C117.15 24.2956 116.932 24.0189 116.632 23.8496C116.333 23.6803 115.893 23.5957 115.314 23.5957C114.468 23.5957 113.8 23.8854 113.312 24.4648C112.824 25.0443 112.58 25.8483 112.58 26.877V33H110.822V24.6895C110.822 23.459 110.802 22.707 110.763 22.4336H112.423C112.43 22.4661 112.436 22.554 112.443 22.6973C112.449 22.8405 112.456 23.0065 112.462 23.1953C112.476 23.3776 112.489 23.7259 112.502 24.2402H112.531C112.934 23.5111 113.4 22.9967 113.927 22.6973C114.461 22.3913 115.122 22.2383 115.91 22.2383C117.069 22.2383 117.915 22.528 118.449 23.1074C118.989 23.6803 119.259 24.6309 119.259 25.959V33H117.492ZM128.986 31.3008C128.66 31.9779 128.227 32.4629 127.687 32.7559C127.153 33.0488 126.489 33.1953 125.695 33.1953C124.36 33.1953 123.377 32.7461 122.745 31.8477C122.12 30.9492 121.808 29.5885 121.808 27.7656C121.808 24.0807 123.103 22.2383 125.695 22.2383C126.495 22.2383 127.163 22.3848 127.696 22.6777C128.23 22.9707 128.66 23.4362 128.986 24.0742H129.005L128.986 22.8926V18.5078H130.743V30.8223C130.743 31.9225 130.763 32.6484 130.802 33H129.122C129.103 32.8958 129.08 32.6549 129.054 32.2773C129.034 31.8997 129.025 31.5742 129.025 31.3008H128.986ZM123.654 27.707C123.654 29.1849 123.849 30.2428 124.239 30.8809C124.63 31.5189 125.265 31.8379 126.144 31.8379C127.14 31.8379 127.862 31.4928 128.312 30.8027C128.761 30.1126 128.986 29.0417 128.986 27.5898C128.986 26.1901 128.761 25.1647 128.312 24.5137C127.862 23.8626 127.146 23.5371 126.163 23.5371C125.278 23.5371 124.637 23.8659 124.239 24.5234C123.849 25.1745 123.654 26.2357 123.654 27.707ZM146.202 20.5586C144.678 20.5586 143.493 21.0501 142.647 22.0332C141.801 23.0098 141.377 24.3509 141.377 26.0566C141.377 27.7428 141.817 29.1003 142.696 30.1289C143.581 31.151 144.776 31.6621 146.28 31.6621C148.207 31.6621 149.655 30.7083 150.625 28.8008L152.149 29.5625C151.582 30.7474 150.785 31.6491 149.756 32.2676C148.734 32.8861 147.546 33.1953 146.192 33.1953C144.805 33.1953 143.604 32.9089 142.588 32.3359C141.579 31.7565 140.808 30.9329 140.274 29.8652C139.746 28.791 139.483 27.5215 139.483 26.0566C139.483 23.8626 140.075 22.1439 141.26 20.9004C142.445 19.6569 144.086 19.0352 146.182 19.0352C147.647 19.0352 148.871 19.3216 149.854 19.8945C150.837 20.4674 151.56 21.3171 152.022 22.4434L150.254 23.0293C149.935 22.2285 149.421 21.6165 148.711 21.1934C148.008 20.7702 147.172 20.5586 146.202 20.5586ZM154.707 33V24.8945C154.707 24.1523 154.688 23.332 154.648 22.4336H156.309C156.361 23.6315 156.387 24.3509 156.387 24.5918H156.426C156.706 23.6868 157.028 23.0684 157.393 22.7363C157.757 22.4043 158.271 22.2383 158.936 22.2383C159.17 22.2383 159.408 22.2708 159.648 22.3359V23.9473C159.414 23.8822 159.102 23.8496 158.711 23.8496C157.982 23.8496 157.425 24.1654 157.041 24.7969C156.657 25.4219 156.465 26.3203 156.465 27.4922V33H154.707ZM163.076 28.0879C163.076 29.2988 163.326 30.2331 163.828 30.8906C164.329 31.5482 165.061 31.877 166.025 31.877C166.787 31.877 167.395 31.724 167.851 31.418C168.313 31.112 168.626 30.7246 168.789 30.2559L170.332 30.6953C169.7 32.362 168.265 33.1953 166.025 33.1953C164.462 33.1953 163.271 32.7298 162.451 31.7988C161.637 30.8678 161.23 29.4844 161.23 27.6484C161.23 25.9036 161.637 24.5658 162.451 23.6348C163.271 22.7038 164.44 22.2383 165.957 22.2383C169.062 22.2383 170.615 24.11 170.615 27.8535V28.0879H163.076ZM168.798 26.7402C168.701 25.627 168.418 24.8164 167.949 24.3086C167.48 23.7943 166.806 23.5371 165.927 23.5371C165.074 23.5371 164.397 23.8236 163.896 24.3965C163.401 24.9629 163.134 25.7441 163.095 26.7402H168.798ZM175.956 33.1953C174.895 33.1953 174.098 32.9154 173.564 32.3555C173.03 31.7956 172.763 31.0273 172.763 30.0508C172.763 28.957 173.121 28.1172 173.837 27.5312C174.56 26.9453 175.722 26.6328 177.323 26.5938L179.696 26.5547V25.9785C179.696 25.1191 179.514 24.5039 179.15 24.1328C178.785 23.7617 178.212 23.5762 177.431 23.5762C176.643 23.5762 176.07 23.7096 175.712 23.9766C175.354 24.2435 175.139 24.6699 175.068 25.2559L173.232 25.0898C173.531 23.1888 174.944 22.2383 177.47 22.2383C178.798 22.2383 179.797 22.5443 180.468 23.1562C181.139 23.7617 181.474 24.6406 181.474 25.793V30.3438C181.474 30.8646 181.542 31.2585 181.679 31.5254C181.816 31.7858 182.076 31.916 182.46 31.916C182.629 31.916 182.821 31.8932 183.036 31.8477V32.9414C182.594 33.0456 182.141 33.0977 181.679 33.0977C181.028 33.0977 180.553 32.9284 180.253 32.5898C179.96 32.2448 179.794 31.7077 179.755 30.9785H179.696C179.247 31.7858 178.723 32.3587 178.124 32.6973C177.532 33.0293 176.809 33.1953 175.956 33.1953ZM176.357 31.877C177.001 31.877 177.574 31.7305 178.075 31.4375C178.577 31.1445 178.971 30.7441 179.257 30.2363C179.55 29.722 179.696 29.1947 179.696 28.6543V27.7852L177.773 27.8242C176.946 27.8372 176.318 27.9219 175.888 28.0781C175.465 28.2344 175.139 28.4753 174.911 28.8008C174.683 29.1263 174.57 29.5527 174.57 30.0801C174.57 30.653 174.723 31.0957 175.029 31.4082C175.341 31.7207 175.784 31.877 176.357 31.877ZM188.856 32.9219C188.277 33.0781 187.684 33.1562 187.079 33.1562C185.673 33.1562 184.97 32.3587 184.97 30.7637V23.7129H183.749V22.4336H185.038L185.555 20.0703H186.727V22.4336H188.68V23.7129H186.727V30.3828C186.727 30.8906 186.809 31.2487 186.971 31.457C187.141 31.6589 187.43 31.7598 187.841 31.7598C188.075 31.7598 188.414 31.7142 188.856 31.623V32.9219ZM192.108 28.0879C192.108 29.2988 192.358 30.2331 192.86 30.8906C193.361 31.5482 194.093 31.877 195.057 31.877C195.819 31.877 196.427 31.724 196.883 31.418C197.345 31.112 197.658 30.7246 197.821 30.2559L199.364 30.6953C198.732 32.362 197.297 33.1953 195.057 33.1953C193.495 33.1953 192.303 32.7298 191.483 31.7988C190.669 30.8678 190.262 29.4844 190.262 27.6484C190.262 25.9036 190.669 24.5658 191.483 23.6348C192.303 22.7038 193.472 22.2383 194.989 22.2383C198.094 22.2383 199.647 24.11 199.647 27.8535V28.0879H192.108ZM197.83 26.7402C197.733 25.627 197.45 24.8164 196.981 24.3086C196.512 23.7943 195.838 23.5371 194.959 23.5371C194.107 23.5371 193.429 23.8236 192.928 24.3965C192.433 24.9629 192.166 25.7441 192.127 26.7402H197.83ZM217.195 33L215.623 28.9766H209.353L207.771 33H205.837L211.453 19.2402H213.572L219.099 33H217.195ZM212.488 20.6465L212.4 20.9199C212.237 21.4603 211.996 22.1536 211.677 23L209.92 27.5215H215.066L213.298 22.9805C213.116 22.5312 212.934 22.0234 212.752 21.457L212.488 20.6465ZM222.224 27.668C222.224 29.0742 222.445 30.1159 222.888 30.793C223.331 31.4701 223.998 31.8086 224.89 31.8086C225.515 31.8086 226.036 31.6393 226.452 31.3008C226.876 30.9622 227.136 30.4414 227.234 29.7383L229.011 29.8555C228.874 30.8711 228.441 31.6816 227.712 32.2871C226.983 32.8926 226.058 33.1953 224.939 33.1953C223.461 33.1953 222.331 32.7298 221.55 31.7988C220.775 30.8613 220.388 29.4974 220.388 27.707C220.388 25.9297 220.779 24.5755 221.56 23.6445C222.341 22.707 223.461 22.2383 224.919 22.2383C226 22.2383 226.895 22.5182 227.605 23.0781C228.321 23.638 228.77 24.4095 228.952 25.3926L227.146 25.5293C227.055 24.9434 226.823 24.4779 226.452 24.1328C226.081 23.7878 225.554 23.6152 224.87 23.6152C223.939 23.6152 223.265 23.9245 222.849 24.543C222.432 25.1615 222.224 26.2031 222.224 27.668ZM232.624 27.668C232.624 29.0742 232.845 30.1159 233.288 30.793C233.731 31.4701 234.398 31.8086 235.29 31.8086C235.915 31.8086 236.436 31.6393 236.852 31.3008C237.276 30.9622 237.536 30.4414 237.634 29.7383L239.411 29.8555C239.274 30.8711 238.841 31.6816 238.112 32.2871C237.383 32.8926 236.458 33.1953 235.339 33.1953C233.861 33.1953 232.731 32.7298 231.95 31.7988C231.175 30.8613 230.788 29.4974 230.788 27.707C230.788 25.9297 231.179 24.5755 231.96 23.6445C232.741 22.707 233.861 22.2383 235.319 22.2383C236.4 22.2383 237.295 22.5182 238.005 23.0781C238.721 23.638 239.17 24.4095 239.352 25.3926L237.546 25.5293C237.455 24.9434 237.223 24.4779 236.852 24.1328C236.481 23.7878 235.954 23.6152 235.27 23.6152C234.339 23.6152 233.665 23.9245 233.249 24.543C232.832 25.1615 232.624 26.2031 232.624 27.668ZM250.621 27.707C250.621 29.556 250.215 30.9329 249.401 31.8379C248.587 32.7428 247.405 33.1953 245.856 33.1953C244.313 33.1953 243.148 32.7266 242.36 31.7891C241.572 30.8451 241.178 29.4844 241.178 27.707C241.178 24.0612 242.757 22.2383 245.914 22.2383C247.529 22.2383 248.717 22.6842 249.479 23.5762C250.241 24.4616 250.621 25.8385 250.621 27.707ZM248.776 27.707C248.776 26.2487 248.558 25.1908 248.121 24.5332C247.692 23.8691 246.966 23.5371 245.944 23.5371C244.915 23.5371 244.17 23.8757 243.707 24.5527C243.252 25.2233 243.024 26.2747 243.024 27.707C243.024 29.1003 243.248 30.1484 243.698 30.8516C244.153 31.5482 244.866 31.8965 245.836 31.8965C246.891 31.8965 247.643 31.5579 248.092 30.8809C248.548 30.2038 248.776 29.1458 248.776 27.707ZM254.938 22.4336V29.1328C254.938 29.8294 255.006 30.3698 255.143 30.7539C255.279 31.138 255.497 31.4147 255.797 31.584C256.096 31.7533 256.536 31.8379 257.115 31.8379C257.962 31.8379 258.629 31.5482 259.117 30.9688C259.605 30.3893 259.85 29.5853 259.85 28.5566V22.4336H261.607V30.7441C261.607 31.9746 261.627 32.7266 261.666 33H260.006C259.999 32.9674 259.993 32.8796 259.986 32.7363C259.98 32.5931 259.97 32.4303 259.957 32.248C259.951 32.0592 259.941 31.7077 259.928 31.1934H259.898C259.495 31.9225 259.026 32.4401 258.492 32.7461C257.965 33.0456 257.307 33.1953 256.52 33.1953C255.361 33.1953 254.511 32.9089 253.971 32.3359C253.437 31.7565 253.17 30.8027 253.17 29.4746V22.4336H254.938ZM271.461 33V26.3008C271.461 25.6042 271.392 25.0638 271.255 24.6797C271.119 24.2956 270.901 24.0189 270.601 23.8496C270.302 23.6803 269.862 23.5957 269.283 23.5957C268.436 23.5957 267.769 23.8854 267.281 24.4648C266.793 25.0443 266.548 25.8483 266.548 26.877V33H264.791V24.6895C264.791 23.459 264.771 22.707 264.732 22.4336H266.392C266.399 22.4661 266.405 22.554 266.412 22.6973C266.418 22.8405 266.425 23.0065 266.431 23.1953C266.444 23.3776 266.457 23.7259 266.47 24.2402H266.5C266.903 23.5111 267.369 22.9967 267.896 22.6973C268.43 22.3913 269.091 22.2383 269.879 22.2383C271.037 22.2383 271.884 22.528 272.418 23.1074C272.958 23.6803 273.228 24.6309 273.228 25.959V33H271.461ZM280.347 32.9219C279.767 33.0781 279.175 33.1562 278.57 33.1562C277.163 33.1562 276.46 32.3587 276.46 30.7637V23.7129H275.239V22.4336H276.529L277.046 20.0703H278.218V22.4336H280.171V23.7129H278.218V30.3828C278.218 30.8906 278.299 31.2487 278.462 31.457C278.631 31.6589 278.921 31.7598 279.331 31.7598C279.566 31.7598 279.904 31.7142 280.347 31.623V32.9219Z" fill="white"/>
</svg>
