<svg width="335" height="56" viewBox="0 0 335 56" fill="none" xmlns="http://www.w3.org/2000/svg">
<rect width="335" height="56" rx="15" fill="#404CCF"/>
<path d="M313.17 25L307.935 19.7648C307.739 19.5691 307.74 19.2515 307.936 19.0565L308.646 18.3511C308.842 18.157 309.158 18.1575 309.352 18.3523L316.646 25.6464C316.842 25.8417 316.842 26.1583 316.646 26.3536L309.354 33.6464C309.158 33.8417 308.842 33.8417 308.646 33.6464L307.943 32.9432C307.748 32.7481 307.748 32.4318 307.943 32.2364L313.17 27L313.735 26.3193C313.889 26.1342 313.889 25.8658 313.735 25.6807L313.17 25Z" fill="white"/>
<path d="M18.375 32.3945C20.6875 32.3945 22.4258 31.25 23.5898 28.9609L25.418 29.875C24.7383 31.2969 23.7812 32.3789 22.5469 33.1211C21.3203 33.8633 19.8945 34.2344 18.2695 34.2344C16.5977 34.2344 15.1602 33.8867 13.957 33.1914C12.7539 32.4961 11.8281 31.5078 11.1797 30.2266C10.5391 28.9375 10.2188 27.418 10.2188 25.668C10.2188 23.9102 10.5391 22.4023 11.1797 21.1445C11.8203 19.8867 12.7422 18.9219 13.9453 18.25C15.1484 17.5781 16.5859 17.2422 18.2578 17.2422C20.0156 17.2422 21.4844 17.5859 22.6641 18.2734C23.8438 18.9609 24.7109 19.9805 25.2656 21.332L23.1445 22.0352C22.7617 21.0742 22.1445 20.3398 21.293 19.832C20.4492 19.3242 19.4453 19.0703 18.2812 19.0703C16.4531 19.0703 15.0312 19.6602 14.0156 20.8398C13 22.0117 12.4922 23.6211 12.4922 25.668C12.4922 27.0117 12.7305 28.1914 13.207 29.207C13.6914 30.2148 14.3711 31 15.2461 31.5625C16.1289 32.1172 17.1719 32.3945 18.375 32.3945ZM30.1172 27.3906V34H28.0078V24.2734C28.0078 23.8281 28 23.3594 27.9844 22.8672C27.9766 22.375 27.9609 21.8594 27.9375 21.3203H29.9297C29.9453 21.6797 29.957 22.0039 29.9648 22.293C29.9805 22.582 29.9922 22.8359 30 23.0547C30.0078 23.2656 30.0117 23.4453 30.0117 23.5938C30.0195 23.7344 30.0234 23.8398 30.0234 23.9102H30.0703C30.3047 23.1445 30.5625 22.5508 30.8438 22.1289C31.1172 21.7383 31.4297 21.4688 31.7812 21.3203C32.1328 21.1641 32.5664 21.0859 33.082 21.0859C33.3711 21.0859 33.6562 21.125 33.9375 21.2031V23.1367C33.6719 23.0586 33.2969 23.0195 32.8125 23.0195C31.9375 23.0195 31.2695 23.3984 30.8086 24.1562C30.3477 24.9062 30.1172 25.9844 30.1172 27.3906ZM37.5703 28.1055C37.5703 29.5586 37.8711 30.6797 38.4727 31.4688C39.0742 32.2578 39.9531 32.6523 41.1094 32.6523C42.0234 32.6523 42.7539 32.4688 43.3008 32.1016C43.8555 31.7344 44.2305 31.2695 44.4258 30.707L46.2773 31.2344C45.5195 33.2344 43.7969 34.2344 41.1094 34.2344C39.2344 34.2344 37.8047 33.6758 36.8203 32.5586C35.8438 31.4414 35.3555 29.7812 35.3555 27.5781C35.3555 25.4844 35.8438 23.8789 36.8203 22.7617C37.8047 21.6445 39.207 21.0859 41.0273 21.0859C42.8945 21.0859 44.293 21.6484 45.2227 22.7734C46.1523 23.8984 46.6172 25.582 46.6172 27.8242V28.1055H37.5703ZM44.4375 26.4883C44.3203 25.1523 43.9805 24.1797 43.418 23.5703C42.8555 22.9531 42.0469 22.6445 40.9922 22.6445C39.9688 22.6445 39.1562 22.9883 38.5547 23.6758C37.9609 24.3555 37.6406 25.293 37.5938 26.4883H44.4375ZM52.5469 34.2344C51.2734 34.2344 50.3164 33.8984 49.6758 33.2266C49.0352 32.5547 48.7148 31.6328 48.7148 30.4609C48.7148 29.1484 49.1445 28.1406 50.0039 27.4375C50.8711 26.7344 52.2656 26.3594 54.1875 26.3125L57.0352 26.2656V25.5742C57.0352 24.543 56.8164 23.8047 56.3789 23.3594C55.9414 22.9141 55.2539 22.6914 54.3164 22.6914C53.3711 22.6914 52.6836 22.8516 52.2539 23.1719C51.8242 23.4922 51.5664 24.0039 51.4805 24.707L49.2773 24.5078C49.6367 22.2266 51.332 21.0859 54.3633 21.0859C55.957 21.0859 57.1562 21.4531 57.9609 22.1875C58.7656 22.9141 59.168 23.9688 59.168 25.3516V30.8125C59.168 31.4375 59.25 31.9102 59.4141 32.2305C59.5781 32.543 59.8906 32.6992 60.3516 32.6992C60.5703 32.6992 60.8008 32.6719 61.043 32.6172V33.9297C60.7773 33.9922 60.5078 34.0391 60.2344 34.0703C59.9609 34.1016 59.6875 34.1172 59.4141 34.1172C58.6328 34.1172 58.0625 33.9141 57.7031 33.5078C57.3516 33.0938 57.1523 32.4492 57.1055 31.5742H57.0352C56.4961 32.543 55.8672 33.2305 55.1484 33.6367C54.4375 34.0352 53.5703 34.2344 52.5469 34.2344ZM57.0352 27.7422L54.7266 27.7891C53.7422 27.7969 52.9922 27.8984 52.4766 28.0938C51.9609 28.2812 51.5664 28.5703 51.293 28.9609C51.0195 29.3516 50.8828 29.8633 50.8828 30.4961C50.8828 31.1836 51.0664 31.7148 51.4336 32.0898C51.8086 32.4648 52.3398 32.6523 53.0273 32.6523C53.8086 32.6523 54.4961 32.4766 55.0898 32.125C55.6914 31.7734 56.1641 31.293 56.5078 30.6836C56.8594 30.0664 57.0352 29.4336 57.0352 28.7852V27.7422ZM67.5469 33.9062C66.8594 34.0938 66.1484 34.1875 65.4141 34.1875C64.5703 34.1875 63.9375 33.9492 63.5156 33.4727C63.0938 32.9883 62.8828 32.2695 62.8828 31.3164V22.8555H61.418V21.3203H62.9648L63.5859 18.4844H64.9922V21.3203H67.3359V22.8555H64.9922V30.8594C64.9922 31.4688 65.0898 31.8984 65.2852 32.1484C65.4883 32.3906 65.8359 32.5117 66.3281 32.5117C66.5938 32.5117 67 32.457 67.5469 32.3477V33.9062ZM70.9688 28.1055C70.9688 29.5586 71.2695 30.6797 71.8711 31.4688C72.4727 32.2578 73.3516 32.6523 74.5078 32.6523C75.4219 32.6523 76.1523 32.4688 76.6992 32.1016C77.2539 31.7344 77.6289 31.2695 77.8242 30.707L79.6758 31.2344C78.918 33.2344 77.1953 34.2344 74.5078 34.2344C72.6328 34.2344 71.2031 33.6758 70.2188 32.5586C69.2422 31.4414 68.7539 29.7812 68.7539 27.5781C68.7539 25.4844 69.2422 23.8789 70.2188 22.7617C71.2031 21.6445 72.6055 21.0859 74.4258 21.0859C76.293 21.0859 77.6914 21.6484 78.6211 22.7734C79.5508 23.8984 80.0156 25.582 80.0156 27.8242V28.1055H70.9688ZM77.8359 26.4883C77.7188 25.1523 77.3789 24.1797 76.8164 23.5703C76.2539 22.9531 75.4453 22.6445 74.3906 22.6445C73.3672 22.6445 72.5547 22.9883 71.9531 23.6758C71.3594 24.3555 71.0391 25.293 70.9922 26.4883H77.8359ZM102.516 22.457C102.516 23.4961 102.285 24.3984 101.824 25.1641C101.363 25.9297 100.707 26.5234 99.8555 26.9453C99.0117 27.3594 98.0039 27.5664 96.832 27.5664H91.9805V34H89.7422V17.4883H96.6914C98.543 17.4883 99.9766 17.9219 100.992 18.7891C102.008 19.6562 102.516 20.8789 102.516 22.457ZM100.266 22.4805C100.266 20.3477 98.9844 19.2812 96.4219 19.2812H91.9805V25.7969H96.5156C97.7656 25.7969 98.7031 25.5234 99.3281 24.9766C99.9531 24.4219 100.266 23.5898 100.266 22.4805ZM107.496 16.6094V18.625H105.387V16.6094H107.496ZM107.496 21.3203V34H105.387V21.3203H107.496ZM112.898 26.6523V34H110.789V24.0273C110.789 23.2852 110.781 22.6914 110.766 22.2461C110.758 21.793 110.742 21.4844 110.719 21.3203H112.711C112.727 21.4688 112.738 21.6562 112.746 21.8828C112.762 22.1094 112.773 22.3594 112.781 22.6328C112.789 22.9062 112.797 23.1914 112.805 23.4883H112.84C113.324 22.6133 113.883 21.9961 114.516 21.6367C115.156 21.2695 115.949 21.0859 116.895 21.0859C118.285 21.0859 119.301 21.4414 119.941 22.1523C120.59 22.8633 120.914 23.9961 120.914 25.5508V34H118.793V25.9609C118.793 24.75 118.598 23.9062 118.207 23.4297C117.816 22.9531 117.141 22.7148 116.18 22.7148C115.164 22.7148 114.363 23.0625 113.777 23.7578C113.191 24.4531 112.898 25.418 112.898 26.6523Z" fill="white"/>
</svg>
