<svg width="321" height="52" viewBox="0 0 321 52" fill="none" xmlns="http://www.w3.org/2000/svg">
<rect width="321" height="51.9137" rx="12" fill="white"/>
<path d="M108.324 26.0566C108.324 23.8236 108.923 22.0951 110.121 20.8711C111.319 19.6471 113.002 19.0352 115.17 19.0352C116.693 19.0352 117.93 19.2923 118.881 19.8066C119.831 20.321 120.564 21.1445 121.078 22.2773L119.301 22.8047C118.91 22.0234 118.37 21.4538 117.68 21.0957C116.996 20.7376 116.143 20.5586 115.121 20.5586C113.533 20.5586 112.318 21.0404 111.479 22.0039C110.639 22.9609 110.219 24.3118 110.219 26.0566C110.219 27.7949 110.665 29.1686 111.557 30.1777C112.449 31.1803 113.682 31.6816 115.258 31.6816C116.156 31.6816 116.993 31.5449 117.768 31.2715C118.549 30.998 119.18 30.627 119.662 30.1582V27.6777H115.551V26.1152H121.381V30.8613C120.652 31.6035 119.757 32.1797 118.695 32.5898C117.641 32.9935 116.495 33.1953 115.258 33.1953C113.819 33.1953 112.579 32.9089 111.537 32.3359C110.495 31.763 109.698 30.9395 109.145 29.8652C108.598 28.7845 108.324 27.515 108.324 26.0566ZM125.98 28.0879C125.98 29.2988 126.231 30.2331 126.732 30.8906C127.233 31.5482 127.966 31.877 128.929 31.877C129.691 31.877 130.3 31.724 130.755 31.418C131.218 31.112 131.53 30.7246 131.693 30.2559L133.236 30.6953C132.604 32.362 131.169 33.1953 128.929 33.1953C127.367 33.1953 126.175 32.7298 125.355 31.7988C124.541 30.8678 124.134 29.4844 124.134 27.6484C124.134 25.9036 124.541 24.5658 125.355 23.6348C126.175 22.7038 127.344 22.2383 128.861 22.2383C131.966 22.2383 133.519 24.11 133.519 27.8535V28.0879H125.98ZM131.703 26.7402C131.605 25.627 131.322 24.8164 130.853 24.3086C130.384 23.7943 129.711 23.5371 128.832 23.5371C127.979 23.5371 127.302 23.8236 126.8 24.3965C126.306 24.9629 126.039 25.7441 126 26.7402H131.703ZM140.228 32.9219C139.648 33.0781 139.056 33.1562 138.45 33.1562C137.044 33.1562 136.341 32.3587 136.341 30.7637V23.7129H135.12V22.4336H136.409L136.927 20.0703H138.099V22.4336H140.052V23.7129H138.099V30.3828C138.099 30.8906 138.18 31.2487 138.343 31.457C138.512 31.6589 138.802 31.7598 139.212 31.7598C139.446 31.7598 139.785 31.7142 140.228 31.623V32.9219ZM159.172 29.2012C159.172 30.4707 158.674 31.4538 157.678 32.1504C156.689 32.847 155.292 33.1953 153.489 33.1953C150.136 33.1953 148.192 32.0299 147.659 29.6992L149.465 29.3379C149.674 30.1647 150.116 30.7734 150.793 31.1641C151.47 31.5482 152.392 31.7402 153.557 31.7402C154.761 31.7402 155.689 31.5352 156.34 31.125C156.998 30.7083 157.327 30.0996 157.327 29.2988C157.327 28.8496 157.222 28.485 157.014 28.2051C156.812 27.9251 156.526 27.694 156.155 27.5117C155.784 27.3294 155.341 27.1764 154.827 27.0527C154.312 26.929 153.743 26.7956 153.118 26.6523C152.03 26.4115 151.204 26.1706 150.637 25.9297C150.077 25.6888 149.635 25.4219 149.309 25.1289C148.983 24.8294 148.733 24.4811 148.557 24.084C148.388 23.6868 148.303 23.2311 148.303 22.7168C148.303 21.5384 148.752 20.6302 149.651 19.9922C150.556 19.3542 151.848 19.0352 153.528 19.0352C155.09 19.0352 156.285 19.276 157.112 19.7578C157.939 20.2331 158.518 21.0469 158.85 22.1992L157.014 22.5215C156.812 21.7923 156.428 21.265 155.862 20.9395C155.295 20.6074 154.511 20.4414 153.508 20.4414C152.408 20.4414 151.568 20.6237 150.989 20.9883C150.409 21.3529 150.12 21.8965 150.12 22.6191C150.12 23.0423 150.23 23.3939 150.452 23.6738C150.679 23.9473 151.005 24.1816 151.428 24.377C151.851 24.5658 152.694 24.8001 153.957 25.0801C154.381 25.1777 154.801 25.2786 155.217 25.3828C155.64 25.4805 156.044 25.6009 156.428 25.7441C156.812 25.8809 157.17 26.0436 157.502 26.2324C157.841 26.4212 158.134 26.6523 158.381 26.9258C158.629 27.1992 158.821 27.5215 158.957 27.8926C159.101 28.2637 159.172 28.6999 159.172 29.2012ZM165.9 32.9219C165.321 33.0781 164.729 33.1562 164.123 33.1562C162.717 33.1562 162.014 32.3587 162.014 30.7637V23.7129H160.793V22.4336H162.082L162.6 20.0703H163.771V22.4336H165.725V23.7129H163.771V30.3828C163.771 30.8906 163.853 31.2487 164.016 31.457C164.185 31.6589 164.475 31.7598 164.885 31.7598C165.119 31.7598 165.458 31.7142 165.9 31.623V32.9219ZM170.5 33.1953C169.438 33.1953 168.641 32.9154 168.107 32.3555C167.573 31.7956 167.306 31.0273 167.306 30.0508C167.306 28.957 167.664 28.1172 168.38 27.5312C169.103 26.9453 170.265 26.6328 171.867 26.5938L174.24 26.5547V25.9785C174.24 25.1191 174.058 24.5039 173.693 24.1328C173.328 23.7617 172.755 23.5762 171.974 23.5762C171.186 23.5762 170.614 23.7096 170.255 23.9766C169.897 24.2435 169.683 24.6699 169.611 25.2559L167.775 25.0898C168.074 23.1888 169.487 22.2383 172.013 22.2383C173.341 22.2383 174.341 22.5443 175.011 23.1562C175.682 23.7617 176.017 24.6406 176.017 25.793V30.3438C176.017 30.8646 176.086 31.2585 176.222 31.5254C176.359 31.7858 176.619 31.916 177.004 31.916C177.173 31.916 177.365 31.8932 177.58 31.8477V32.9414C177.137 33.0456 176.685 33.0977 176.222 33.0977C175.571 33.0977 175.096 32.9284 174.796 32.5898C174.504 32.2448 174.338 31.7077 174.298 30.9785H174.24C173.791 31.7858 173.267 32.3587 172.668 32.6973C172.075 33.0293 171.352 33.1953 170.5 33.1953ZM170.9 31.877C171.545 31.877 172.117 31.7305 172.619 31.4375C173.12 31.1445 173.514 30.7441 173.8 30.2363C174.093 29.722 174.24 29.1947 174.24 28.6543V27.7852L172.316 27.8242C171.489 27.8372 170.861 27.9219 170.431 28.0781C170.008 28.2344 169.683 28.4753 169.455 28.8008C169.227 29.1263 169.113 29.5527 169.113 30.0801C169.113 30.653 169.266 31.0957 169.572 31.4082C169.884 31.7207 170.327 31.877 170.9 31.877ZM179.376 33V24.8945C179.376 24.1523 179.357 23.332 179.318 22.4336H180.978C181.03 23.6315 181.056 24.3509 181.056 24.5918H181.095C181.375 23.6868 181.697 23.0684 182.062 22.7363C182.426 22.4043 182.941 22.2383 183.605 22.2383C183.839 22.2383 184.077 22.2708 184.318 22.3359V23.9473C184.083 23.8822 183.771 23.8496 183.38 23.8496C182.651 23.8496 182.094 24.1654 181.71 24.7969C181.326 25.4219 181.134 26.3203 181.134 27.4922V33H179.376ZM190.46 32.9219C189.88 33.0781 189.288 33.1562 188.682 33.1562C187.276 33.1562 186.573 32.3587 186.573 30.7637V23.7129H185.352V22.4336H186.641L187.159 20.0703H188.331V22.4336H190.284V23.7129H188.331V30.3828C188.331 30.8906 188.412 31.2487 188.575 31.457C188.744 31.6589 189.034 31.7598 189.444 31.7598C189.679 31.7598 190.017 31.7142 190.46 31.623V32.9219ZM193.711 28.0879C193.711 29.2988 193.962 30.2331 194.463 30.8906C194.965 31.5482 195.697 31.877 196.661 31.877C197.422 31.877 198.031 31.724 198.487 31.418C198.949 31.112 199.261 30.7246 199.424 30.2559L200.967 30.6953C200.336 32.362 198.9 33.1953 196.661 33.1953C195.098 33.1953 193.907 32.7298 193.086 31.7988C192.273 30.8678 191.866 29.4844 191.866 27.6484C191.866 25.9036 192.273 24.5658 193.086 23.6348C193.907 22.7038 195.075 22.2383 196.592 22.2383C199.698 22.2383 201.25 24.11 201.25 27.8535V28.0879H193.711ZM199.434 26.7402C199.336 25.627 199.053 24.8164 198.584 24.3086C198.116 23.7943 197.442 23.5371 196.563 23.5371C195.71 23.5371 195.033 23.8236 194.532 24.3965C194.037 24.9629 193.77 25.7441 193.731 26.7402H199.434ZM210.566 31.3008C210.241 31.9779 209.808 32.4629 209.268 32.7559C208.734 33.0488 208.07 33.1953 207.275 33.1953C205.941 33.1953 204.958 32.7461 204.326 31.8477C203.701 30.9492 203.389 29.5885 203.389 27.7656C203.389 24.0807 204.684 22.2383 207.275 22.2383C208.076 22.2383 208.743 22.3848 209.277 22.6777C209.811 22.9707 210.241 23.4362 210.566 24.0742H210.586L210.566 22.8926V18.5078H212.324V30.8223C212.324 31.9225 212.344 32.6484 212.383 33H210.703C210.684 32.8958 210.661 32.6549 210.635 32.2773C210.615 31.8997 210.605 31.5742 210.605 31.3008H210.566ZM205.234 27.707C205.234 29.1849 205.43 30.2428 205.82 30.8809C206.211 31.5189 206.846 31.8379 207.725 31.8379C208.721 31.8379 209.443 31.4928 209.893 30.8027C210.342 30.1126 210.566 29.0417 210.566 27.5898C210.566 26.1901 210.342 25.1647 209.893 24.5137C209.443 23.8626 208.727 23.5371 207.744 23.5371C206.859 23.5371 206.217 23.8659 205.82 24.5234C205.43 25.1745 205.234 26.2357 205.234 27.707Z" fill="#404CCF"/>
</svg>
