<svg width="40" height="40" viewBox="0 0 40 40" fill="none" xmlns="http://www.w3.org/2000/svg">
<path d="M19.9556 2.5031C19.9556 2.5031 30.2708 2.04185 35.7397 12.3732H19.0779C19.0779 12.3732 15.9335 12.2722 13.2474 16.0732C12.4758 17.6686 11.6465 19.3121 12.5772 22.5509C11.2364 20.2875 5.45911 10.2637 5.45911 10.2637C5.45911 10.2637 9.53411 2.91153 19.9555 2.5031H19.9556Z" fill="#EF3F36"/>
<path d="M35.2042 28.7303C35.2042 28.7303 30.4443 37.8651 18.7355 37.4134C20.1822 34.9195 27.0686 23.036 27.0686 23.036C27.0686 23.036 28.7325 20.3739 26.7697 16.1549C25.7713 14.6893 24.7538 13.1564 21.4746 12.3394C24.1126 12.3155 35.7106 12.3394 35.7106 12.3394C35.7106 12.3394 40.0555 19.533 35.2042 28.7303Z" fill="#FCD900"/>
<path d="M4.77897 28.8025C4.77897 28.8025 -0.781406 20.1289 5.46852 10.2492C6.91049 12.7432 13.797 24.6267 13.797 24.6267C13.797 24.6267 15.2823 27.3946 19.9264 27.8077C21.6963 27.678 23.5385 27.5675 25.892 25.1505C24.5945 27.4379 18.7737 37.4328 18.7737 37.4328C18.7737 37.4328 10.344 37.5866 4.77884 28.8025H4.77897Z" fill="#61BC5B"/>
<path d="M18.7307 37.5L21.0744 27.755C21.0744 27.755 23.6497 27.553 25.8103 25.1937C24.4695 27.5436 18.7307 37.5 18.7307 37.5Z" fill="#5AB055"/>
<path d="M12.1046 20.1096C12.1046 15.8138 15.6009 12.3299 19.9122 12.3299C24.2234 12.3299 27.7198 15.8138 27.7198 20.1096C27.7198 24.4055 24.2234 27.8892 19.9122 27.8892C15.6009 27.8845 12.1046 24.4055 12.1046 20.1096Z" fill="white"/>
<path d="M13.4114 20.1097C13.4114 16.5346 16.3194 13.6321 19.9122 13.6321C23.5001 13.6321 26.413 16.5298 26.413 20.1097C26.413 23.6849 23.5051 26.5873 19.9122 26.5873C16.3242 26.5873 13.4114 23.6849 13.4114 20.1097Z" fill="url(#paint0_linear_30:131)"/>
<path d="M35.7058 12.3444L26.0559 15.1651C26.0559 15.1651 24.5996 13.0363 21.4698 12.3444C24.1849 12.3299 35.7058 12.3444 35.7058 12.3444Z" fill="#EACA05"/>
<path d="M12.3891 22.1954C11.0339 19.8552 5.45911 10.2637 5.45911 10.2637L12.6061 17.3083C12.6061 17.3083 11.873 18.8124 12.148 20.9652L12.389 22.1954H12.3891Z" fill="#DF3A32"/>
<defs>
<linearGradient id="paint0_linear_30:131" x1="19.9119" y1="13.7236" x2="19.9119" y2="26.1974" gradientUnits="userSpaceOnUse">
<stop stop-color="#86BBE5"/>
<stop offset="1" stop-color="#1072BA"/>
</linearGradient>
</defs>
</svg>
