<svg width="40" height="40" viewBox="0 0 40 40" fill="none" xmlns="http://www.w3.org/2000/svg">
<path d="M36.2382 13.4081C35.477 11.5717 33.9341 9.58924 32.723 8.96299C33.7088 10.9002 34.279 12.8432 34.497 14.293C34.497 14.293 34.497 14.3033 34.5006 14.3223C32.5196 9.37221 29.1597 7.37582 26.4159 3.03009C26.2766 2.81086 26.1381 2.59164 26.0025 2.35707C25.9259 2.22481 25.8639 2.10497 25.81 1.9917C25.6963 1.77197 25.6084 1.53974 25.5482 1.29969C25.5487 1.28829 25.5449 1.27712 25.5377 1.26834C25.5304 1.25956 25.5201 1.25381 25.5088 1.25219C25.4981 1.24927 25.4868 1.24927 25.476 1.25219C25.4731 1.25351 25.4704 1.25523 25.468 1.2573C25.4636 1.2573 25.4593 1.26242 25.4549 1.26388L25.4622 1.25438C21.0603 3.83829 19.5671 8.61808 19.43 11.0098C17.671 11.1304 15.9891 11.7795 14.6038 12.8725C14.459 12.7498 14.3076 12.6351 14.1502 12.529C13.751 11.1284 13.7342 9.64603 14.1014 8.23663C12.3011 9.05872 10.9012 10.3558 9.8833 11.5038H9.87528C9.18041 10.6218 9.22926 7.71269 9.26864 7.10544C9.26062 7.06744 8.75094 7.3707 8.68532 7.41674C8.07216 7.85512 7.499 8.34714 6.97256 8.88699C6.3735 9.49569 5.8262 10.1534 5.33637 10.8534C4.2094 12.454 3.41017 14.2626 2.98488 16.1747C2.97686 16.2127 2.96957 16.2522 2.96155 16.2909C2.92874 16.4451 2.80989 17.2189 2.78874 17.387V17.4257C2.6338 18.2253 2.5373 19.0352 2.5 19.8489V19.9388C2.5 29.6372 10.3456 37.5 20.0228 37.5C28.6901 37.5 35.886 31.1937 37.2954 22.91C37.3246 22.6856 37.3487 22.4591 37.3749 22.2326C37.7234 19.2204 37.3363 16.0549 36.2382 13.4081ZM16.0409 27.1548C16.1226 27.1936 16.1999 27.2367 16.2837 27.2747L16.2954 27.282C16.2115 27.2411 16.1262 27.1987 16.0416 27.1548H16.0409ZM34.5021 14.3303V14.3135V14.3325V14.3303Z" fill="url(#paint0_linear_30:141)"/>
<path d="M36.2381 13.4081C35.4769 11.5718 33.934 9.58926 32.7229 8.96301C33.7087 10.9002 34.2789 12.8433 34.4969 14.2931V14.3289C36.1506 18.8215 35.2494 23.3901 33.9515 26.1815C31.9435 30.5002 27.0823 34.927 19.4722 34.7115C11.257 34.4776 4.01438 28.3606 2.66182 20.3553C2.41537 19.0918 2.66182 18.451 2.78577 17.4257C2.63484 18.2157 2.57724 18.4444 2.50214 19.8489V19.9388C2.50214 29.6372 10.3477 37.5 20.0249 37.5C28.6922 37.5 35.8881 31.1937 37.2976 22.91C37.3267 22.6856 37.3508 22.4591 37.3771 22.2326C37.7234 19.2205 37.3362 16.0549 36.2381 13.4081Z" fill="url(#paint1_radial_30:141)"/>
<path d="M36.2381 13.4081C35.4769 11.5718 33.934 9.58926 32.7229 8.96301C33.7087 10.9002 34.2789 12.8433 34.4969 14.2931V14.3289C36.1506 18.8215 35.2494 23.3901 33.9515 26.1815C31.9435 30.5002 27.0823 34.927 19.4722 34.7115C11.257 34.4776 4.01438 28.3606 2.66182 20.3553C2.41537 19.0918 2.66182 18.451 2.78577 17.4257C2.63484 18.2157 2.57724 18.4444 2.50214 19.8489V19.9388C2.50214 29.6372 10.3477 37.5 20.0249 37.5C28.6922 37.5 35.8881 31.1937 37.2976 22.91C37.3267 22.6856 37.3508 22.4591 37.3771 22.2326C37.7234 19.2205 37.3362 16.0549 36.2381 13.4081Z" fill="url(#paint2_radial_30:141)"/>
<path d="M27.7226 15.4718C27.7612 15.4988 27.7955 15.5259 27.832 15.5529C27.3922 14.7703 26.8443 14.0539 26.2045 13.425C20.7578 7.96633 24.7769 1.58841 25.4542 1.26396L25.4615 1.25446C21.0597 3.83836 19.5664 8.61815 19.4293 11.0099C19.6335 10.996 19.8369 10.9785 20.0447 10.9785C23.3295 10.9785 26.1907 12.7892 27.7226 15.4718Z" fill="url(#paint3_radial_30:141)"/>
<path d="M20.0557 16.5621C20.0272 17.0005 18.4873 18.5058 17.9484 18.5058C12.9655 18.5058 12.1569 21.5267 12.1569 21.5267C12.3756 24.0712 14.1445 26.1662 16.2845 27.2748C16.3822 27.3252 16.4807 27.3705 16.5762 27.4158C16.7475 27.4889 16.9196 27.5619 17.091 27.627C17.8249 27.8864 18.5934 28.0342 19.371 28.0654C28.1047 28.4761 29.7978 17.5997 23.4943 14.4414C25.1079 14.1601 26.7835 14.8112 27.719 15.4696C26.1878 12.787 23.3259 10.9763 20.0411 10.9763C19.8333 10.9763 19.6298 10.9938 19.4257 11.0077C17.668 11.1297 15.9877 11.7796 14.6039 12.8725C14.8715 13.0998 15.1733 13.4023 15.8084 14.0293C16.9998 15.2073 20.0491 16.4196 20.0557 16.5621Z" fill="url(#paint4_radial_30:141)"/>
<path d="M20.0557 16.5621C20.0272 17.0005 18.4873 18.5058 17.9484 18.5058C12.9655 18.5058 12.1569 21.5267 12.1569 21.5267C12.3756 24.0712 14.1445 26.1662 16.2845 27.2748C16.3822 27.3252 16.4807 27.3705 16.5762 27.4158C16.7475 27.4889 16.9196 27.5619 17.091 27.627C17.8249 27.8864 18.5934 28.0342 19.371 28.0654C28.1047 28.4761 29.7978 17.5997 23.4943 14.4414C25.1079 14.1601 26.7835 14.8112 27.719 15.4696C26.1878 12.787 23.3259 10.9763 20.0411 10.9763C19.8333 10.9763 19.6298 10.9938 19.4257 11.0077C17.668 11.1297 15.9877 11.7796 14.6039 12.8725C14.8715 13.0998 15.1733 13.4023 15.8084 14.0293C16.9998 15.2073 20.0491 16.4196 20.0557 16.5621Z" fill="url(#paint5_radial_30:141)"/>
<path d="M13.7893 12.2887C13.9315 12.3807 14.0482 12.4582 14.1539 12.5291C13.7547 11.1284 13.7378 9.6461 14.1051 8.23669C12.3048 9.05878 10.9048 10.3558 9.88696 11.5038C9.96936 11.5017 12.5111 11.4556 13.7893 12.2887Z" fill="url(#paint6_radial_30:141)"/>
<path d="M2.66225 20.3553C4.01481 28.3606 11.2574 34.4776 19.4785 34.7115C27.0885 34.927 31.9468 30.5002 33.9578 26.1815C35.2557 23.3893 36.1569 18.8215 34.5032 14.3289V14.2952C34.5032 14.2996 34.5032 14.3055 34.5068 14.3245C35.1281 18.3925 33.0639 22.3334 29.8367 24.9984C29.8333 25.0059 29.8302 25.0135 29.8272 25.0211C23.5383 30.1531 17.5207 28.1173 16.3023 27.2864C16.2177 27.2455 16.1324 27.2031 16.0479 27.1593C12.381 25.4055 10.8666 22.055 11.191 19.1839C8.09582 19.1839 7.04002 16.5664 7.04002 16.5664C7.04002 16.5664 9.81952 14.5802 13.4827 16.3077C16.8754 17.908 20.0618 16.5671 20.0618 16.5664C20.0552 16.4239 17.006 15.2079 15.8167 14.0336C15.1816 13.4067 14.8798 13.1041 14.6122 12.8769C14.4674 12.7542 14.316 12.6395 14.1586 12.5334C14.0544 12.4604 13.9399 12.3873 13.7941 12.293C12.5159 11.46 9.9741 11.506 9.89024 11.5082H9.88222C9.18735 10.6262 9.2362 7.7171 9.27558 7.10985C9.26756 7.07185 8.75788 7.37511 8.69226 7.42115C8.0791 7.85953 7.50594 8.35155 6.97951 8.8914C6.38044 9.5001 5.83314 10.1579 5.34331 10.8578C4.21634 12.4585 3.41712 14.2671 2.99182 16.1791C2.97797 16.2127 2.35455 18.9406 2.66225 20.3553Z" fill="url(#paint7_radial_30:141)"/>
<path d="M26.2044 13.4249C26.8442 14.0539 27.3921 14.7703 27.8319 15.5528C27.923 15.6214 28.0106 15.6946 28.0944 15.7721C32.0667 19.4375 29.9887 24.6265 29.8304 24.9992C33.0576 22.3341 35.1218 18.3932 34.5006 14.3252C32.5195 9.37221 29.1596 7.37582 26.4159 3.03009C26.2766 2.81086 26.1381 2.59164 26.0024 2.35707C25.9259 2.22481 25.8639 2.10497 25.81 1.9917C25.6963 1.77197 25.6084 1.53974 25.5482 1.29969C25.5487 1.28829 25.5449 1.27712 25.5376 1.26834C25.5304 1.25956 25.5201 1.25381 25.5088 1.25219C25.4981 1.24927 25.4867 1.24927 25.476 1.25219C25.4731 1.25351 25.4704 1.25523 25.468 1.2573C25.4636 1.2573 25.4592 1.26242 25.4549 1.26388C24.7768 1.58833 20.7577 7.96626 26.2044 13.4249Z" fill="url(#paint8_radial_30:141)"/>
<path d="M28.0929 15.7684C28.0091 15.691 27.9215 15.6178 27.8304 15.5492C27.7947 15.5222 27.7575 15.4951 27.721 15.4681C26.7855 14.8104 25.11 14.1586 23.4964 14.44C29.7991 17.5982 28.1067 28.4746 19.3731 28.0639C18.5955 28.0327 17.827 27.8849 17.0931 27.6255C16.9217 27.5612 16.7496 27.4903 16.5783 27.4143C16.4791 27.369 16.3807 27.3237 16.2866 27.2733L16.2983 27.2806C17.5167 28.1136 23.5343 30.1495 29.8231 25.0153C29.8231 25.0153 29.8268 25.0058 29.8326 24.9926C29.9887 24.6265 32.0667 19.4375 28.0929 15.7684Z" fill="url(#paint9_radial_30:141)"/>
<path d="M12.1567 21.5267C12.1567 21.5267 12.9653 18.5058 17.9482 18.5058C18.4871 18.5058 20.027 16.999 20.0555 16.562C20.0839 16.125 16.8691 17.9037 13.4764 16.3033C9.81318 14.5759 7.03369 16.562 7.03369 16.562C7.03369 16.562 8.08949 19.1796 11.1847 19.1796C10.8602 22.0506 12.3747 25.3982 16.0415 27.1549C16.1232 27.1936 16.2005 27.2367 16.2843 27.2747C14.1443 26.1684 12.3776 24.0712 12.1567 21.5267Z" fill="url(#paint10_radial_30:141)"/>
<path d="M36.2382 13.4081C35.477 11.5717 33.9341 9.58924 32.723 8.96299C33.7088 10.9002 34.279 12.8432 34.497 14.293C34.497 14.293 34.497 14.3033 34.5006 14.3223C32.5196 9.37221 29.1597 7.37582 26.4159 3.03009C26.2766 2.81086 26.1381 2.59164 26.0025 2.35707C25.9259 2.22481 25.8639 2.10497 25.81 1.9917C25.6963 1.77197 25.6084 1.53974 25.5482 1.29969C25.5487 1.28829 25.5449 1.27712 25.5377 1.26834C25.5304 1.25956 25.5201 1.25381 25.5088 1.25219C25.4981 1.24927 25.4868 1.24927 25.476 1.25219C25.4731 1.25351 25.4704 1.25523 25.468 1.2573C25.4636 1.2573 25.4593 1.26242 25.4549 1.26388L25.4622 1.25438C21.0603 3.83829 19.5671 8.61808 19.43 11.0098C19.6341 10.9959 19.8376 10.9784 20.0454 10.9784C23.3302 10.9784 26.1913 12.7892 27.7232 15.4717C26.7878 14.8141 25.1122 14.1622 23.4986 14.4436C29.8013 17.6018 28.109 28.4782 19.3753 28.0675C18.5977 28.0363 17.8292 27.8885 17.0953 27.6291C16.9239 27.5648 16.7518 27.4939 16.5805 27.4179C16.4813 27.3726 16.3829 27.3273 16.2888 27.2769L16.3005 27.2842C16.2159 27.2433 16.1306 27.2009 16.046 27.157C16.1277 27.1958 16.205 27.2389 16.2888 27.2769C14.1444 26.1683 12.3777 24.0711 12.1568 21.5267C12.1568 21.5267 12.9654 18.5058 17.9484 18.5058C18.4872 18.5058 20.0271 16.999 20.0556 16.562C20.049 16.4195 16.9997 15.2035 15.8105 14.0292C15.1754 13.4023 14.8736 13.0997 14.606 12.8725C14.4612 12.7498 14.3098 12.6351 14.1524 12.529C13.7532 11.1284 13.7363 9.64603 14.1036 8.23663C12.3033 9.05872 10.9034 10.3558 9.88549 11.5038H9.87747C9.1826 10.6218 9.23145 7.71269 9.27082 7.10544C9.2628 7.06744 8.75313 7.3707 8.68751 7.41674C8.07435 7.85512 7.50119 8.34714 6.97475 8.88699C6.37569 9.49569 5.82839 10.1534 5.33855 10.8534C4.21159 12.454 3.41236 14.2626 2.98707 16.1747C2.97905 16.2127 2.97176 16.2522 2.96374 16.2909C2.93092 16.4451 2.78218 17.2299 2.76176 17.398C2.76176 17.4111 2.76176 17.3855 2.76176 17.398C2.62524 18.2089 2.53782 19.0274 2.5 19.8489V19.9388C2.5 29.6372 10.3456 37.5 20.0228 37.5C28.6901 37.5 35.886 31.1937 37.2954 22.91C37.3246 22.6856 37.3487 22.4591 37.3749 22.2326C37.7234 19.2204 37.3363 16.0549 36.2382 13.4081ZM34.4999 14.3098V14.3288V14.3098Z" fill="url(#paint11_linear_30:141)"/>
<defs>
<linearGradient id="paint0_linear_30:141" x1="33.9188" y1="6.86576" x2="4.7674" y2="34.9297" gradientUnits="userSpaceOnUse">
<stop offset="0.05" stop-color="#FFF44F"/>
<stop offset="0.11" stop-color="#FFE847"/>
<stop offset="0.22" stop-color="#FFC830"/>
<stop offset="0.37" stop-color="#FF980E"/>
<stop offset="0.4" stop-color="#FF8B16"/>
<stop offset="0.46" stop-color="#FF672A"/>
<stop offset="0.53" stop-color="#FF3647"/>
<stop offset="0.7" stop-color="#E31587"/>
</linearGradient>
<radialGradient id="paint1_radial_30:141" cx="0" cy="0" r="1" gradientUnits="userSpaceOnUse" gradientTransform="translate(32.5742 5.27349) scale(36.5308 36.611)">
<stop offset="0.13" stop-color="#FFBD4F"/>
<stop offset="0.19" stop-color="#FFAC31"/>
<stop offset="0.25" stop-color="#FF9D17"/>
<stop offset="0.28" stop-color="#FF980E"/>
<stop offset="0.4" stop-color="#FF563B"/>
<stop offset="0.47" stop-color="#FF3750"/>
<stop offset="0.71" stop-color="#F5156C"/>
<stop offset="0.78" stop-color="#EB0878"/>
<stop offset="0.86" stop-color="#E50080"/>
</radialGradient>
<radialGradient id="paint2_radial_30:141" cx="0" cy="0" r="1" gradientUnits="userSpaceOnUse" gradientTransform="translate(19.2258 20.2406) scale(36.5308 36.611)">
<stop offset="0.3" stop-color="#960E18"/>
<stop offset="0.35" stop-color="#B11927" stop-opacity="0.74"/>
<stop offset="0.43" stop-color="#DB293D" stop-opacity="0.34"/>
<stop offset="0.5" stop-color="#F5334B" stop-opacity="0.09"/>
<stop offset="0.53" stop-color="#FF3750" stop-opacity="0"/>
</radialGradient>
<radialGradient id="paint3_radial_30:141" cx="0" cy="0" r="1" gradientUnits="userSpaceOnUse" gradientTransform="translate(23.6306 -3.03501) scale(26.465 26.5231)">
<stop offset="0.13" stop-color="#FFF44F"/>
<stop offset="0.25" stop-color="#FFDC3E"/>
<stop offset="0.51" stop-color="#FF9D12"/>
<stop offset="0.53" stop-color="#FF980E"/>
</radialGradient>
<radialGradient id="paint4_radial_30:141" cx="0" cy="0" r="1" gradientUnits="userSpaceOnUse" gradientTransform="translate(15.1857 29.8039) scale(17.3937 17.4319)">
<stop offset="0.35" stop-color="#3A8EE6"/>
<stop offset="0.47" stop-color="#5C79F0"/>
<stop offset="0.67" stop-color="#9059FF"/>
<stop offset="1" stop-color="#C139E6"/>
</radialGradient>
<radialGradient id="paint5_radial_30:141" cx="0" cy="0" r="1" gradientUnits="userSpaceOnUse" gradientTransform="translate(19.7505 15.8895) rotate(-13.9265) scale(9.21645 10.8481)">
<stop offset="0.21" stop-color="#9059FF" stop-opacity="0"/>
<stop offset="0.28" stop-color="#8C4FF3" stop-opacity="0.06"/>
<stop offset="0.75" stop-color="#7716A8" stop-opacity="0.45"/>
<stop offset="0.97" stop-color="#6E008B" stop-opacity="0.6"/>
</radialGradient>
<radialGradient id="paint6_radial_30:141" cx="0" cy="0" r="1" gradientUnits="userSpaceOnUse" gradientTransform="translate(18.7643 3.77551) scale(12.5136 12.541)">
<stop stop-color="#FFE226"/>
<stop offset="0.12" stop-color="#FFDB27"/>
<stop offset="0.3" stop-color="#FFC82A"/>
<stop offset="0.5" stop-color="#FFA930"/>
<stop offset="0.73" stop-color="#FF7E37"/>
<stop offset="0.79" stop-color="#FF7139"/>
</radialGradient>
<radialGradient id="paint7_radial_30:141" cx="0" cy="0" r="1" gradientUnits="userSpaceOnUse" gradientTransform="translate(28.6008 -4.17866) scale(53.3886 53.5057)">
<stop offset="0.11" stop-color="#FFF44F"/>
<stop offset="0.46" stop-color="#FF980E"/>
<stop offset="0.62" stop-color="#FF5634"/>
<stop offset="0.72" stop-color="#FF3647"/>
<stop offset="0.9" stop-color="#E31587"/>
</radialGradient>
<radialGradient id="paint8_radial_30:141" cx="0" cy="0" r="1" gradientUnits="userSpaceOnUse" gradientTransform="translate(23.4398 1.66718) rotate(84.2447) scale(38.9995 25.5679)">
<stop stop-color="#FFF44F"/>
<stop offset="0.06" stop-color="#FFE847"/>
<stop offset="0.17" stop-color="#FFC830"/>
<stop offset="0.3" stop-color="#FF980E"/>
<stop offset="0.36" stop-color="#FF8B16"/>
<stop offset="0.45" stop-color="#FF672A"/>
<stop offset="0.57" stop-color="#FF3647"/>
<stop offset="0.74" stop-color="#E31587"/>
</radialGradient>
<radialGradient id="paint9_radial_30:141" cx="0" cy="0" r="1" gradientUnits="userSpaceOnUse" gradientTransform="translate(18.4697 8.42009) scale(33.3305 33.4037)">
<stop offset="0.14" stop-color="#FFF44F"/>
<stop offset="0.48" stop-color="#FF980E"/>
<stop offset="0.59" stop-color="#FF5634"/>
<stop offset="0.66" stop-color="#FF3647"/>
<stop offset="0.9" stop-color="#E31587"/>
</radialGradient>
<radialGradient id="paint10_radial_30:141" cx="0" cy="0" r="1" gradientUnits="userSpaceOnUse" gradientTransform="translate(27.2681 10.3756) scale(36.4805 36.5605)">
<stop offset="0.09" stop-color="#FFF44F"/>
<stop offset="0.23" stop-color="#FFE141"/>
<stop offset="0.51" stop-color="#FFAF1E"/>
<stop offset="0.63" stop-color="#FF980E"/>
</radialGradient>
<linearGradient id="paint11_linear_30:141" x1="33.5688" y1="6.71523" x2="8.76304" y2="31.4674" gradientUnits="userSpaceOnUse">
<stop offset="0.17" stop-color="#FFF44F" stop-opacity="0.8"/>
<stop offset="0.27" stop-color="#FFF44F" stop-opacity="0.63"/>
<stop offset="0.49" stop-color="#FFF44F" stop-opacity="0.22"/>
<stop offset="0.6" stop-color="#FFF44F" stop-opacity="0"/>
</linearGradient>
</defs>
</svg>
