<svg width="321" height="52" viewBox="0 0 321 52" fill="none" xmlns="http://www.w3.org/2000/svg">
<rect width="321" height="51.9137" rx="12" fill="#404CCF"/>
<path d="M136.848 33V19.2402H138.714V31.4766H145.667V33H136.848ZM157.024 27.707C157.024 29.556 156.617 30.9329 155.803 31.8379C154.989 32.7428 153.808 33.1953 152.258 33.1953C150.715 33.1953 149.55 32.7266 148.762 31.7891C147.974 30.8451 147.58 29.4844 147.58 27.707C147.58 24.0612 149.159 22.2383 152.317 22.2383C153.931 22.2383 155.12 22.6842 155.881 23.5762C156.643 24.4616 157.024 25.8385 157.024 27.707ZM155.178 27.707C155.178 26.2487 154.96 25.1908 154.524 24.5332C154.094 23.8691 153.368 23.5371 152.346 23.5371C151.317 23.5371 150.572 23.8757 150.11 24.5527C149.654 25.2233 149.426 26.2747 149.426 27.707C149.426 29.1003 149.651 30.1484 150.1 30.8516C150.556 31.5482 151.269 31.8965 152.239 31.8965C153.293 31.8965 154.045 31.5579 154.495 30.8809C154.95 30.2038 155.178 29.1458 155.178 27.707ZM163.625 37.1504C162.473 37.1504 161.555 36.9225 160.871 36.4668C160.188 36.0176 159.748 35.3763 159.553 34.543L161.32 34.2891C161.438 34.7773 161.695 35.1517 162.092 35.4121C162.495 35.679 163.023 35.8125 163.674 35.8125C165.425 35.8125 166.301 34.7871 166.301 32.7363V31.0371H166.281C165.949 31.7142 165.493 32.2253 164.914 32.5703C164.335 32.9089 163.658 33.0781 162.883 33.0781C161.587 33.0781 160.633 32.6484 160.021 31.7891C159.416 30.9297 159.113 29.5788 159.113 27.7363C159.113 25.8678 159.439 24.4909 160.09 23.6055C160.747 22.7135 161.743 22.2676 163.078 22.2676C163.827 22.2676 164.475 22.4401 165.021 22.7852C165.575 23.1237 166.001 23.6087 166.301 24.2402H166.32C166.32 24.0449 166.333 23.7064 166.359 23.2246C166.385 22.7428 166.411 22.4792 166.438 22.4336H168.107C168.068 22.7852 168.049 23.5143 168.049 24.6211V32.6973C168.049 35.666 166.574 37.1504 163.625 37.1504ZM166.301 27.7168C166.301 26.8574 166.184 26.1185 165.949 25.5C165.715 24.875 165.383 24.3997 164.953 24.0742C164.53 23.7422 164.048 23.5762 163.508 23.5762C162.609 23.5762 161.955 23.9017 161.545 24.5527C161.135 25.2038 160.93 26.2585 160.93 27.7168C160.93 29.1621 161.122 30.2005 161.506 30.832C161.89 31.4635 162.548 31.7793 163.479 31.7793C164.032 31.7793 164.523 31.6165 164.953 31.291C165.383 30.9655 165.715 30.5 165.949 29.8945C166.184 29.2826 166.301 28.5566 166.301 27.7168ZM171.144 20.1875V18.5078H172.902V20.1875H171.144ZM171.144 33V22.4336H172.902V33H171.144ZM182.716 33V26.3008C182.716 25.6042 182.648 25.0638 182.511 24.6797C182.374 24.2956 182.156 24.0189 181.857 23.8496C181.557 23.6803 181.118 23.5957 180.538 23.5957C179.692 23.5957 179.025 23.8854 178.536 24.4648C178.048 25.0443 177.804 25.8483 177.804 26.877V33H176.046V24.6895C176.046 23.459 176.027 22.707 175.987 22.4336H177.648C177.654 22.4661 177.661 22.554 177.667 22.6973C177.674 22.8405 177.68 23.0065 177.687 23.1953C177.7 23.3776 177.713 23.7259 177.726 24.2402H177.755C178.159 23.5111 178.624 22.9967 179.152 22.6973C179.685 22.3913 180.346 22.2383 181.134 22.2383C182.293 22.2383 183.139 22.528 183.673 23.1074C184.213 23.6803 184.484 24.6309 184.484 25.959V33H182.716Z" fill="white"/>
</svg>
