<svg width="321" height="53" viewBox="0 0 321 53" fill="none" xmlns="http://www.w3.org/2000/svg">
<rect y="0.913696" width="321" height="51.9137" rx="12" fill="white"/>
<path d="M132.702 33.9137L129.127 28.2008H124.84V33.9137H122.975V20.1539H129.45C130.999 20.1539 132.194 20.5022 133.034 21.1989C133.88 21.889 134.303 22.8525 134.303 24.0895C134.303 25.1116 134.004 25.971 133.405 26.6676C132.812 27.3642 131.992 27.8037 130.944 27.986L134.85 33.9137H132.702ZM132.428 24.109C132.428 23.3082 132.155 22.6995 131.608 22.2828C131.067 21.8597 130.286 21.6481 129.264 21.6481H124.84V26.7262H129.342C130.325 26.7262 131.084 26.4983 131.618 26.0426C132.158 25.5804 132.428 24.9358 132.428 24.109ZM138.883 29.0016C138.883 30.2125 139.133 31.1468 139.635 31.8043C140.136 32.4619 140.868 32.7906 141.832 32.7906C142.594 32.7906 143.202 32.6377 143.658 32.3317C144.12 32.0257 144.433 31.6383 144.596 31.1696L146.139 31.609C145.507 33.2757 144.072 34.109 141.832 34.109C140.27 34.109 139.078 33.6435 138.258 32.7125C137.444 31.7815 137.037 30.3981 137.037 28.5621C137.037 26.8173 137.444 25.4795 138.258 24.5485C139.078 23.6175 140.247 23.152 141.764 23.152C144.869 23.152 146.422 25.0237 146.422 28.7672V29.0016H138.883ZM144.605 27.6539C144.508 26.5406 144.225 25.7301 143.756 25.2223C143.287 24.708 142.613 24.4508 141.734 24.4508C140.882 24.4508 140.204 24.7373 139.703 25.3102C139.208 25.8766 138.941 26.6578 138.902 27.6539H144.605ZM153.072 38.0641C151.92 38.0641 151.002 37.8362 150.318 37.3805C149.634 36.9313 149.195 36.29 149 35.4567L150.767 35.2028C150.884 35.691 151.142 36.0654 151.539 36.3258C151.942 36.5927 152.47 36.7262 153.121 36.7262C154.872 36.7262 155.748 35.7008 155.748 33.65V31.9508H155.728C155.396 32.6279 154.94 33.139 154.361 33.484C153.782 33.8226 153.104 33.9918 152.33 33.9918C151.034 33.9918 150.08 33.5621 149.468 32.7028C148.863 31.8434 148.56 30.4925 148.56 28.65C148.56 26.7815 148.886 25.4046 149.537 24.5192C150.194 23.6272 151.19 23.1813 152.525 23.1813C153.274 23.1813 153.921 23.3538 154.468 23.6989C155.022 24.0374 155.448 24.5224 155.748 25.1539H155.767C155.767 24.9586 155.78 24.6201 155.806 24.1383C155.832 23.6565 155.858 23.3929 155.884 23.3473H157.554C157.515 23.6989 157.496 24.428 157.496 25.5348V33.611C157.496 36.5797 156.021 38.0641 153.072 38.0641ZM155.748 28.6305C155.748 27.7711 155.63 27.0322 155.396 26.4137C155.162 25.7887 154.83 25.3134 154.4 24.9879C153.977 24.6559 153.495 24.4899 152.955 24.4899C152.056 24.4899 151.402 24.8154 150.992 25.4664C150.582 26.1175 150.377 27.1722 150.377 28.6305C150.377 30.0758 150.569 31.1142 150.953 31.7457C151.337 32.3772 151.994 32.693 152.925 32.693C153.479 32.693 153.97 32.5302 154.4 32.2047C154.83 31.8792 155.162 31.4137 155.396 30.8082C155.63 30.1962 155.748 29.4703 155.748 28.6305ZM160.591 21.1012V19.4215H162.349V21.1012H160.591ZM160.591 33.9137V23.3473H162.349V33.9137H160.591ZM173.384 30.9938C173.384 31.9899 173.006 32.7581 172.251 33.2985C171.502 33.8388 170.451 34.109 169.096 34.109C167.781 34.109 166.766 33.8942 166.05 33.4645C165.34 33.0283 164.878 32.3512 164.663 31.4332L166.216 31.1305C166.365 31.6969 166.675 32.1136 167.143 32.3805C167.612 32.6409 168.263 32.7711 169.096 32.7711C169.988 32.7711 170.639 32.6344 171.05 32.361C171.466 32.0875 171.675 31.6774 171.675 31.1305C171.675 30.7138 171.531 30.3753 171.245 30.1149C170.958 29.8545 170.496 29.6396 169.858 29.4703L168.598 29.1383C167.589 28.8779 166.87 28.624 166.44 28.3766C166.017 28.1227 165.685 27.8167 165.444 27.4586C165.203 27.1005 165.083 26.6611 165.083 26.1403C165.083 25.1767 165.425 24.4443 166.108 23.943C166.798 23.4352 167.801 23.1813 169.116 23.1813C170.281 23.1813 171.206 23.3864 171.889 23.7965C172.58 24.2067 173.016 24.8642 173.198 25.7692L171.616 25.9645C171.518 25.4957 171.255 25.1377 170.825 24.8903C170.402 24.6364 169.832 24.5094 169.116 24.5094C168.322 24.5094 167.736 24.6298 167.358 24.8707C166.981 25.1116 166.792 25.4762 166.792 25.9645C166.792 26.264 166.87 26.5114 167.026 26.7067C167.182 26.902 167.414 27.068 167.72 27.2047C168.026 27.3414 168.67 27.5302 169.653 27.7711C170.584 28.0055 171.255 28.2236 171.665 28.4254C172.075 28.6207 172.397 28.8388 172.632 29.0797C172.873 29.3206 173.058 29.6005 173.188 29.9196C173.318 30.2321 173.384 30.5901 173.384 30.9938ZM179.916 33.8356C179.337 33.9918 178.745 34.0699 178.139 34.0699C176.733 34.0699 176.03 33.2724 176.03 31.6774V24.6266H174.809V23.3473H176.098L176.616 20.984H177.787V23.3473H179.741V24.6266H177.787V31.2965C177.787 31.8043 177.869 32.1624 178.032 32.3707C178.201 32.5726 178.491 32.6735 178.901 32.6735C179.135 32.6735 179.474 32.6279 179.916 32.5367V33.8356ZM183.168 29.0016C183.168 30.2125 183.419 31.1468 183.92 31.8043C184.421 32.4619 185.154 32.7906 186.117 32.7906C186.879 32.7906 187.488 32.6377 187.943 32.3317C188.406 32.0257 188.718 31.6383 188.881 31.1696L190.424 31.609C189.792 33.2757 188.357 34.109 186.117 34.109C184.555 34.109 183.363 33.6435 182.543 32.7125C181.729 31.7815 181.322 30.3981 181.322 28.5621C181.322 26.8173 181.729 25.4795 182.543 24.5485C183.363 23.6175 184.532 23.152 186.049 23.152C189.154 23.152 190.707 25.0237 190.707 28.7672V29.0016H183.168ZM188.891 27.6539C188.793 26.5406 188.51 25.7301 188.041 25.2223C187.572 24.708 186.898 24.4508 186.02 24.4508C185.167 24.4508 184.49 24.7373 183.988 25.3102C183.493 25.8766 183.227 26.6578 183.188 27.6539H188.891ZM193.392 33.9137V25.8082C193.392 25.066 193.373 24.2457 193.334 23.3473H194.994C195.046 24.5452 195.072 25.2646 195.072 25.5055H195.111C195.391 24.6005 195.713 23.9821 196.078 23.65C196.442 23.318 196.957 23.152 197.621 23.152C197.855 23.152 198.093 23.1845 198.334 23.2496V24.861C198.099 24.7959 197.787 24.7633 197.396 24.7633C196.667 24.7633 196.11 25.0791 195.726 25.7106C195.342 26.3356 195.15 27.234 195.15 28.4059V33.9137H193.392Z" fill="#404CCF"/>
</svg>
