<svg width="72" height="18" viewBox="0 0 72 18" fill="none" xmlns="http://www.w3.org/2000/svg">
<path d="M27.0471 14L24.8117 10.3428H22.4465V14H20.4299V4.36816H25.2424C26.3908 4.36816 27.2772 4.61654 27.9016 5.11328C28.5259 5.60547 28.8381 6.31413 28.8381 7.23926C28.8381 7.91374 28.6467 8.49707 28.2639 8.98926C27.8811 9.47689 27.3638 9.79818 26.7121 9.95312L29.3166 14H27.0471ZM26.8078 7.32129C26.8078 6.39616 26.2154 5.93359 25.0305 5.93359H22.4465V8.77734H25.0852C25.6503 8.77734 26.0786 8.64974 26.3703 8.39453C26.662 8.13932 26.8078 7.78158 26.8078 7.32129ZM33.8964 14.1367C32.7844 14.1367 31.9299 13.8086 31.3329 13.1523C30.7359 12.4915 30.4374 11.5299 30.4374 10.2676C30.4374 9.04622 30.7405 8.10742 31.3466 7.45117C31.9527 6.79492 32.8118 6.4668 33.9237 6.4668C34.9856 6.4668 35.7968 6.81999 36.3573 7.52637C36.9179 8.22819 37.1982 9.25814 37.1982 10.6162V10.6709H32.454C32.454 11.391 32.5862 11.9355 32.8505 12.3047C33.1194 12.6693 33.4999 12.8516 33.9921 12.8516C34.6711 12.8516 35.0995 12.5576 35.2773 11.9697L37.0888 12.127C36.5647 13.4668 35.5006 14.1367 33.8964 14.1367ZM33.8964 7.67676C33.4452 7.67676 33.0966 7.83398 32.8505 8.14844C32.609 8.46289 32.4814 8.90267 32.4677 9.46777H35.3388C35.3023 8.87077 35.1588 8.42415 34.9081 8.12793C34.6575 7.82715 34.3202 7.67676 33.8964 7.67676ZM45.1754 11.8398C45.1754 12.5553 44.8815 13.1182 44.2936 13.5283C43.7103 13.9339 42.9013 14.1367 41.8668 14.1367C40.8506 14.1367 40.0713 13.9772 39.5289 13.6582C38.9912 13.3346 38.6334 12.8333 38.4557 12.1543L40.1442 11.9014C40.2399 12.2523 40.4039 12.5007 40.6364 12.6465C40.8733 12.7923 41.2835 12.8652 41.8668 12.8652C42.4046 12.8652 42.7965 12.7969 43.0426 12.6602C43.2887 12.5234 43.4118 12.3092 43.4118 12.0176C43.4118 11.7806 43.3115 11.5938 43.111 11.457C42.915 11.3158 42.5801 11.1973 42.1061 11.1016C41.0215 10.8874 40.29 10.6891 39.9118 10.5068C39.5335 10.32 39.2441 10.0807 39.0436 9.78906C38.8476 9.49284 38.7496 9.13053 38.7496 8.70215C38.7496 7.99577 39.0208 7.44661 39.5631 7.05469C40.11 6.6582 40.8825 6.45996 41.8805 6.45996C42.7601 6.45996 43.4664 6.63086 43.9996 6.97266C44.5374 7.31445 44.8724 7.80892 45.0045 8.45605L43.3024 8.63379C43.2477 8.33301 43.1133 8.1097 42.8991 7.96387C42.6849 7.81348 42.3454 7.73828 41.8805 7.73828C41.4248 7.73828 41.083 7.79753 40.8551 7.91602C40.6273 8.02995 40.5133 8.22363 40.5133 8.49707C40.5133 8.71126 40.5999 8.88216 40.7731 9.00977C40.9508 9.13281 41.247 9.23535 41.6618 9.31738C42.2405 9.43587 42.7532 9.55892 43.1998 9.68652C43.651 9.80957 44.011 9.95768 44.2799 10.1309C44.5534 10.304 44.7698 10.5273 44.9293 10.8008C45.0934 11.0697 45.1754 11.416 45.1754 11.8398ZM50.0423 14.1367C48.9304 14.1367 48.0759 13.8086 47.4789 13.1523C46.8819 12.4915 46.5834 11.5299 46.5834 10.2676C46.5834 9.04622 46.8864 8.10742 47.4925 7.45117C48.0987 6.79492 48.9577 6.4668 50.0697 6.4668C51.1315 6.4668 51.9427 6.81999 52.5033 7.52637C53.0638 8.22819 53.3441 9.25814 53.3441 10.6162V10.6709H48.6C48.6 11.391 48.7321 11.9355 48.9964 12.3047C49.2653 12.6693 49.6459 12.8516 50.138 12.8516C50.8171 12.8516 51.2455 12.5576 51.4232 11.9697L53.2347 12.127C52.7106 13.4668 51.6465 14.1367 50.0423 14.1367ZM50.0423 7.67676C49.5912 7.67676 49.2425 7.83398 48.9964 8.14844C48.7549 8.46289 48.6273 8.90267 48.6136 9.46777H51.4847C51.4483 8.87077 51.3047 8.42415 51.0541 8.12793C50.8034 7.82715 50.4662 7.67676 50.0423 7.67676ZM59.879 14V9.85059C59.879 8.55176 59.4392 7.90234 58.5596 7.90234C58.0948 7.90234 57.7188 8.10286 57.4317 8.50391C57.1492 8.90039 57.0079 9.41081 57.0079 10.0352V14H55.087V8.25781C55.087 7.86133 55.0802 7.53776 55.0665 7.28711C55.0574 7.0319 55.046 6.80404 55.0323 6.60352H56.8643C56.878 6.6901 56.8962 6.92253 56.919 7.30078C56.9418 7.67448 56.9532 7.93197 56.9532 8.07324H56.9805C57.2403 7.50814 57.5662 7.09798 57.9581 6.84277C58.35 6.58757 58.8171 6.45996 59.3595 6.45996C60.1433 6.45996 60.7449 6.7015 61.1641 7.18457C61.5834 7.66764 61.793 8.37402 61.793 9.30371V14H59.879ZM68.7176 14C68.6993 13.9316 68.6766 13.7607 68.6492 13.4873C68.6264 13.2093 68.615 12.9792 68.615 12.7969H68.5877C68.173 13.6901 67.3846 14.1367 66.2225 14.1367C65.3611 14.1367 64.6958 13.8018 64.2264 13.1318C63.757 12.4574 63.5223 11.5163 63.5223 10.3086C63.5223 9.08268 63.7684 8.13704 64.2605 7.47168C64.7573 6.80176 65.4591 6.4668 66.366 6.4668C66.8901 6.4668 67.3413 6.57617 67.7195 6.79492C68.1023 7.01367 68.3963 7.33952 68.6014 7.77246H68.615L68.6014 6.55566V3.85547H70.5223V12.3867C70.5223 12.8424 70.5405 13.3802 70.577 14H68.7176ZM68.6287 10.2607C68.6287 9.46322 68.4943 8.85026 68.2254 8.42188C67.9611 7.98893 67.5691 7.77246 67.0496 7.77246C66.5346 7.77246 66.1518 7.9821 65.9012 8.40137C65.6505 8.81608 65.5252 9.45182 65.5252 10.3086C65.5252 11.9857 66.0288 12.8242 67.0359 12.8242C67.5418 12.8242 67.9337 12.6032 68.2117 12.1611C68.4897 11.7145 68.6287 11.0811 68.6287 10.2607Z" fill="#404CCF"/>
<path d="M7 3.5V0L2.625 4.375L7 8.75V5.25C8.39239 5.25 9.72775 5.80312 10.7123 6.78769C11.6969 7.77226 12.25 9.10761 12.25 10.5C12.25 11.8924 11.6969 13.2277 10.7123 14.2123C9.72775 15.1969 8.39239 15.75 7 15.75C5.60761 15.75 4.27226 15.1969 3.28769 14.2123C2.30312 13.2277 1.75 11.8924 1.75 10.5H0C0 12.3565 0.737498 14.137 2.05025 15.4497C3.36301 16.7625 5.14348 17.5 7 17.5C8.85652 17.5 10.637 16.7625 11.9497 15.4497C13.2625 14.137 14 12.3565 14 10.5C14 8.64348 13.2625 6.86301 11.9497 5.55025C10.637 4.2375 8.85652 3.5 7 3.5Z" fill="#404CCF"/>
</svg>
