<svg width="321" height="53" viewBox="0 0 321 53" fill="none" xmlns="http://www.w3.org/2000/svg">
<rect width="321" height="51.9137" rx="12" fill="#404CCF"/>
<path d="M132.577 29.2012C132.577 30.4707 132.079 31.4538 131.082 32.1504C130.093 32.847 128.696 33.1953 126.893 33.1953C123.54 33.1953 121.597 32.0299 121.063 29.6992L122.87 29.3379C123.078 30.1647 123.521 30.7734 124.198 31.1641C124.875 31.5482 125.796 31.7402 126.961 31.7402C128.166 31.7402 129.093 31.5352 129.745 31.125C130.402 30.7083 130.731 30.0996 130.731 29.2988C130.731 28.8496 130.627 28.485 130.418 28.2051C130.217 27.9251 129.93 27.694 129.559 27.5117C129.188 27.3294 128.745 27.1764 128.231 27.0527C127.717 26.929 127.147 26.7956 126.522 26.6523C125.435 26.4115 124.608 26.1706 124.041 25.9297C123.482 25.6888 123.039 25.4219 122.713 25.1289C122.388 24.8294 122.137 24.4811 121.961 24.084C121.792 23.6868 121.707 23.2311 121.707 22.7168C121.707 21.5384 122.157 20.6302 123.055 19.9922C123.96 19.3542 125.252 19.0352 126.932 19.0352C128.495 19.0352 129.689 19.276 130.516 19.7578C131.343 20.2331 131.922 21.0469 132.254 22.1992L130.418 22.5215C130.217 21.7923 129.832 21.265 129.266 20.9395C128.7 20.6074 127.915 20.4414 126.912 20.4414C125.812 20.4414 124.972 20.6237 124.393 20.9883C123.814 21.3529 123.524 21.8965 123.524 22.6191C123.524 23.0423 123.635 23.3939 123.856 23.6738C124.084 23.9473 124.409 24.1816 124.832 24.377C125.256 24.5658 126.099 24.8001 127.362 25.0801C127.785 25.1777 128.205 25.2786 128.621 25.3828C129.045 25.4805 129.448 25.6009 129.832 25.7441C130.217 25.8809 130.575 26.0436 130.907 26.2324C131.245 26.4212 131.538 26.6523 131.786 26.9258C132.033 27.1992 132.225 27.5215 132.362 27.8926C132.505 28.2637 132.577 28.6999 132.577 29.2012ZM135.232 20.1875V18.5078H136.99V20.1875H135.232ZM135.232 33V22.4336H136.99V33H135.232ZM144.099 37.1504C142.947 37.1504 142.029 36.9225 141.345 36.4668C140.662 36.0176 140.222 35.3763 140.027 34.543L141.795 34.2891C141.912 34.7773 142.169 35.1517 142.566 35.4121C142.97 35.679 143.497 35.8125 144.148 35.8125C145.899 35.8125 146.775 34.7871 146.775 32.7363V31.0371H146.755C146.423 31.7142 145.968 32.2253 145.388 32.5703C144.809 32.9089 144.132 33.0781 143.357 33.0781C142.061 33.0781 141.108 32.6484 140.496 31.7891C139.89 30.9297 139.587 29.5788 139.587 27.7363C139.587 25.8678 139.913 24.4909 140.564 23.6055C141.222 22.7135 142.218 22.2676 143.552 22.2676C144.301 22.2676 144.949 22.4401 145.496 22.7852C146.049 23.1237 146.476 23.6087 146.775 24.2402H146.795C146.795 24.0449 146.808 23.7064 146.834 23.2246C146.86 22.7428 146.886 22.4792 146.912 22.4336H148.582C148.543 22.7852 148.523 23.5143 148.523 24.6211V32.6973C148.523 35.666 147.048 37.1504 144.099 37.1504ZM146.775 27.7168C146.775 26.8574 146.658 26.1185 146.423 25.5C146.189 24.875 145.857 24.3997 145.427 24.0742C145.004 23.7422 144.522 23.5762 143.982 23.5762C143.084 23.5762 142.429 23.9017 142.019 24.5527C141.609 25.2038 141.404 26.2585 141.404 27.7168C141.404 29.1621 141.596 30.2005 141.98 30.832C142.364 31.4635 143.022 31.7793 143.953 31.7793C144.506 31.7793 144.998 31.6165 145.427 31.291C145.857 30.9655 146.189 30.5 146.423 29.8945C146.658 29.2826 146.775 28.5566 146.775 27.7168ZM158.337 33V26.3008C158.337 25.6042 158.269 25.0638 158.132 24.6797C157.995 24.2956 157.777 24.0189 157.478 23.8496C157.178 23.6803 156.739 23.5957 156.159 23.5957C155.313 23.5957 154.646 23.8854 154.157 24.4648C153.669 25.0443 153.425 25.8483 153.425 26.877V33H151.667V24.6895C151.667 23.459 151.648 22.707 151.609 22.4336H153.269C153.275 22.4661 153.282 22.554 153.288 22.6973C153.295 22.8405 153.301 23.0065 153.308 23.1953C153.321 23.3776 153.334 23.7259 153.347 24.2402H153.376C153.78 23.5111 154.245 22.9967 154.773 22.6973C155.307 22.3913 155.967 22.2383 156.755 22.2383C157.914 22.2383 158.76 22.528 159.294 23.1074C159.835 23.6803 160.105 24.6309 160.105 25.959V33H158.337ZM182.379 26.0566C182.379 27.4954 182.103 28.7552 181.549 29.8359C181.002 30.9167 180.215 31.7467 179.186 32.3262C178.157 32.9056 176.943 33.1953 175.543 33.1953C174.131 33.1953 172.91 32.9089 171.881 32.3359C170.859 31.763 170.078 30.9362 169.537 29.8555C168.997 28.7682 168.727 27.502 168.727 26.0566C168.727 23.8561 169.329 22.1374 170.534 20.9004C171.738 19.6569 173.414 19.0352 175.563 19.0352C176.963 19.0352 178.177 19.3151 179.205 19.875C180.234 20.4284 181.019 21.2357 181.559 22.2969C182.106 23.3581 182.379 24.6113 182.379 26.0566ZM180.475 26.0566C180.475 24.3444 180.045 23 179.186 22.0234C178.333 21.0469 177.125 20.5586 175.563 20.5586C173.987 20.5586 172.77 21.0404 171.911 22.0039C171.051 22.9674 170.621 24.3184 170.621 26.0566C170.621 27.7819 171.054 29.1523 171.92 30.168C172.793 31.1771 174 31.6816 175.543 31.6816C177.132 31.6816 178.349 31.1934 179.196 30.2168C180.049 29.2337 180.475 27.847 180.475 26.0566ZM186.812 22.4336V29.1328C186.812 29.8294 186.881 30.3698 187.018 30.7539C187.154 31.138 187.372 31.4147 187.672 31.584C187.971 31.7533 188.411 31.8379 188.99 31.8379C189.837 31.8379 190.504 31.5482 190.992 30.9688C191.48 30.3893 191.725 29.5853 191.725 28.5566V22.4336H193.482V30.7441C193.482 31.9746 193.502 32.7266 193.541 33H191.881C191.874 32.9674 191.868 32.8796 191.861 32.7363C191.855 32.5931 191.845 32.4303 191.832 32.248C191.826 32.0592 191.816 31.7077 191.803 31.1934H191.773C191.37 31.9225 190.901 32.4401 190.367 32.7461C189.84 33.0456 189.182 33.1953 188.395 33.1953C187.236 33.1953 186.386 32.9089 185.846 32.3359C185.312 31.7565 185.045 30.8027 185.045 29.4746V22.4336H186.812ZM200.689 32.9219C200.11 33.0781 199.517 33.1562 198.912 33.1562C197.505 33.1562 196.802 32.3587 196.802 30.7637V23.7129H195.582V22.4336H196.871L197.388 20.0703H198.56V22.4336H200.513V23.7129H198.56V30.3828C198.56 30.8906 198.642 31.2487 198.804 31.457C198.974 31.6589 199.263 31.7598 199.673 31.7598C199.908 31.7598 200.246 31.7142 200.689 31.623V32.9219Z" fill="white"/>
</svg>
