<svg width="335" height="56" viewBox="0 0 335 56" fill="none" xmlns="http://www.w3.org/2000/svg">
<rect width="335" height="56" rx="15" fill="#404CCF"/>
<path d="M143.906 29.4414C143.906 30.9648 143.309 32.1445 142.113 32.9805C140.926 33.8164 139.25 34.2344 137.086 34.2344C133.062 34.2344 130.73 32.8359 130.09 30.0391L132.258 29.6055C132.508 30.5977 133.039 31.3281 133.852 31.7969C134.664 32.2578 135.77 32.4883 137.168 32.4883C138.613 32.4883 139.727 32.2422 140.508 31.75C141.297 31.25 141.691 30.5195 141.691 29.5586C141.691 29.0195 141.566 28.582 141.316 28.2461C141.074 27.9102 140.73 27.6328 140.285 27.4141C139.84 27.1953 139.309 27.0117 138.691 26.8633C138.074 26.7148 137.391 26.5547 136.641 26.3828C135.773 26.1875 135.047 25.9961 134.461 25.8086C133.883 25.6211 133.406 25.4258 133.031 25.2227C132.656 25.0117 132.336 24.7891 132.07 24.5547C131.68 24.1953 131.379 23.7773 131.168 23.3008C130.965 22.8242 130.863 22.2773 130.863 21.6602C130.863 20.2461 131.402 19.1562 132.48 18.3906C133.566 17.625 135.117 17.2422 137.133 17.2422C139.008 17.2422 140.441 17.5312 141.434 18.1094C142.426 18.6797 143.121 19.6562 143.52 21.0391L141.316 21.4258C141.074 20.5508 140.613 19.918 139.934 19.5273C139.254 19.1289 138.312 18.9297 137.109 18.9297C135.789 18.9297 134.781 19.1484 134.086 19.5859C133.391 20.0234 133.043 20.6758 133.043 21.543C133.043 22.0508 133.176 22.4727 133.441 22.8086C133.715 23.1367 134.105 23.4141 134.613 23.6406C135.09 23.8672 136.102 24.1523 137.648 24.4961C138.281 24.6445 138.906 24.8008 139.523 24.9648C140.141 25.1211 140.723 25.3203 141.27 25.5625C141.59 25.6953 141.895 25.8594 142.184 26.0547C142.48 26.2422 142.738 26.4609 142.957 26.7109C143.254 27.0391 143.484 27.4258 143.648 27.8711C143.82 28.3164 143.906 28.8398 143.906 29.4414ZM154.641 31.832C154.156 32.707 153.594 33.3281 152.953 33.6953C152.32 34.0547 151.531 34.2344 150.586 34.2344C149.195 34.2344 148.176 33.8906 147.527 33.2031C146.887 32.5078 146.566 31.3633 146.566 29.7695V21.3203H148.688V29.3594C148.688 30.625 148.883 31.4844 149.273 31.9375C149.672 32.3828 150.348 32.6055 151.301 32.6055C152.316 32.6055 153.117 32.2578 153.703 31.5625C154.289 30.8672 154.582 29.9023 154.582 28.668V21.3203H156.691V31.293C156.691 32.0273 156.695 32.6211 156.703 33.0742C156.719 33.5273 156.738 33.8359 156.762 34H154.77C154.762 33.9609 154.746 33.7773 154.723 33.4492C154.707 33.1211 154.691 32.582 154.676 31.832H154.641ZM170.707 27.6016C170.707 29.8125 170.316 31.4727 169.535 32.582C168.762 33.6836 167.598 34.2344 166.043 34.2344C165.082 34.2344 164.281 34.0625 163.641 33.7188C163.008 33.3672 162.492 32.8047 162.094 32.0312H162.07C162.07 32.1875 162.062 32.4141 162.047 32.7109C162.031 33.0078 162.016 33.2852 162 33.543C161.984 33.793 161.969 33.9453 161.953 34H159.914C159.938 33.7891 159.953 33.4688 159.961 33.0391C159.977 32.6016 159.984 32.0508 159.984 31.3867V16.6094H162.094V21.5664C162.094 21.8164 162.09 22.0938 162.082 22.3984C162.074 22.6953 162.062 23.0156 162.047 23.3594H162.094C162.484 22.5469 163 21.9648 163.641 21.6133C164.289 21.2617 165.09 21.0859 166.043 21.0859C167.645 21.0859 168.82 21.625 169.57 22.7031C170.328 23.7812 170.707 25.4141 170.707 27.6016ZM168.492 27.6719C168.492 25.8984 168.258 24.6289 167.789 23.8633C167.32 23.0977 166.559 22.7148 165.504 22.7148C164.316 22.7148 163.449 23.1211 162.902 23.9336C162.363 24.7461 162.094 26.0352 162.094 27.8008C162.094 29.4648 162.359 30.6953 162.891 31.4922C163.422 32.2812 164.285 32.6758 165.48 32.6758C166.543 32.6758 167.309 32.2852 167.777 31.5039C168.254 30.7148 168.492 29.4375 168.492 27.6719ZM175.488 26.6523V34H173.391V24.0273C173.391 23.2852 173.383 22.6914 173.367 22.2461C173.359 21.793 173.344 21.4844 173.32 21.3203H175.312C175.328 21.4922 175.344 21.7031 175.359 21.9531C175.375 22.2031 175.387 22.4648 175.395 22.7383C175.402 23.0039 175.406 23.2539 175.406 23.4883H175.441C175.895 22.5898 176.414 21.9648 177 21.6133C177.586 21.2617 178.301 21.0859 179.145 21.0859C180.105 21.0859 180.863 21.2773 181.418 21.6602C181.98 22.043 182.371 22.6523 182.59 23.4883H182.625C183.062 22.6367 183.59 22.0234 184.207 21.6484C184.832 21.2734 185.586 21.0859 186.469 21.0859C187.75 21.0859 188.68 21.4336 189.258 22.1289C189.844 22.8242 190.137 23.9648 190.137 25.5508V34H188.051V25.9609C188.051 24.7344 187.883 23.8867 187.547 23.418C187.211 22.9492 186.605 22.7148 185.73 22.7148C184.809 22.7148 184.09 23.0586 183.574 23.7461C183.066 24.4258 182.812 25.3945 182.812 26.6523V34H180.727V25.9609C180.727 24.7344 180.559 23.8867 180.223 23.418C179.887 22.9492 179.281 22.7148 178.406 22.7148C177.508 22.7148 176.797 23.0586 176.273 23.7461C175.75 24.4336 175.488 25.4023 175.488 26.6523ZM195.434 16.6094V18.625H193.324V16.6094H195.434ZM195.434 21.3203V34H193.324V21.3203H195.434ZM203.555 33.9062C202.867 34.0938 202.156 34.1875 201.422 34.1875C200.578 34.1875 199.945 33.9492 199.523 33.4727C199.102 32.9883 198.891 32.2695 198.891 31.3164V22.8555H197.426V21.3203H198.973L199.594 18.4844H201V21.3203H203.344V22.8555H201V30.8594C201 31.4688 201.098 31.8984 201.293 32.1484C201.496 32.3906 201.844 32.5117 202.336 32.5117C202.602 32.5117 203.008 32.457 203.555 32.3477V33.9062Z" fill="white"/>
</svg>
