<svg width="321" height="52" viewBox="0 0 321 52" fill="none" xmlns="http://www.w3.org/2000/svg">
<rect width="321" height="51.9137" rx="12" fill="#404CCF"/>
<path d="M101.638 33H99.7047L94.0895 19.2402H96.0523L99.8609 28.9277L100.681 31.3594L101.502 28.9277L105.291 19.2402H107.254L101.638 33ZM109.323 28.0879C109.323 29.2988 109.574 30.2331 110.075 30.8906C110.577 31.5482 111.309 31.877 112.273 31.877C113.034 31.877 113.643 31.724 114.099 31.418C114.561 31.112 114.874 30.7246 115.036 30.2559L116.579 30.6953C115.948 32.362 114.512 33.1953 112.273 33.1953C110.71 33.1953 109.519 32.7298 108.698 31.7988C107.885 30.8678 107.478 29.4844 107.478 27.6484C107.478 25.9036 107.885 24.5658 108.698 23.6348C109.519 22.7038 110.687 22.2383 112.204 22.2383C115.31 22.2383 116.863 24.11 116.863 27.8535V28.0879H109.323ZM115.046 26.7402C114.948 25.627 114.665 24.8164 114.196 24.3086C113.728 23.7943 113.054 23.5371 112.175 23.5371C111.322 23.5371 110.645 23.8236 110.144 24.3965C109.649 24.9629 109.382 25.7441 109.343 26.7402H115.046ZM119.548 33V24.8945C119.548 24.1523 119.528 23.332 119.489 22.4336H121.149C121.201 23.6315 121.227 24.3509 121.227 24.5918H121.266C121.546 23.6868 121.869 23.0684 122.233 22.7363C122.598 22.4043 123.112 22.2383 123.776 22.2383C124.011 22.2383 124.248 22.2708 124.489 22.3359V23.9473C124.255 23.8822 123.942 23.8496 123.552 23.8496C122.822 23.8496 122.266 24.1654 121.882 24.7969C121.498 25.4219 121.305 26.3203 121.305 27.4922V33H119.548ZM126.559 20.1875V18.5078H128.317V20.1875H126.559ZM126.559 33V22.4336H128.317V33H126.559ZM133.6 23.7129V33H131.842V23.7129H130.357V22.4336H131.842V21.2422C131.842 20.2786 132.053 19.5853 132.477 19.1621C132.9 18.7389 133.548 18.5273 134.42 18.5273C134.908 18.5273 135.322 18.5664 135.66 18.6445V19.9824C135.367 19.9303 135.107 19.9043 134.879 19.9043C134.43 19.9043 134.104 20.0182 133.902 20.2461C133.701 20.474 133.6 20.8874 133.6 21.4863V22.4336H135.66V23.7129H133.6ZM137.906 37.1504C137.424 37.1504 137.02 37.1146 136.695 37.043V35.7246C136.942 35.7637 137.216 35.7832 137.515 35.7832C138.609 35.7832 139.475 34.9792 140.113 33.3711L140.279 32.9512L136.089 22.4336H137.964L140.191 28.2734C140.224 28.3646 140.263 28.4753 140.308 28.6055C140.354 28.7292 140.5 29.1523 140.748 29.875C140.995 30.5977 141.129 31.0013 141.148 31.0859L141.832 29.1621L144.146 22.4336H146.002L141.939 33C141.503 34.1263 141.096 34.9629 140.718 35.5098C140.341 36.0632 139.921 36.4733 139.459 36.7402C139.003 37.0137 138.485 37.1504 137.906 37.1504ZM162.69 33L161.118 28.9766H154.848L153.266 33H151.333L156.948 19.2402H159.067L164.595 33H162.69ZM157.983 20.6465L157.895 20.9199C157.733 21.4603 157.492 22.1536 157.173 23L155.415 27.5215H160.561L158.794 22.9805C158.611 22.5312 158.429 22.0234 158.247 21.457L157.983 20.6465ZM167.719 27.668C167.719 29.0742 167.94 30.1159 168.383 30.793C168.826 31.4701 169.493 31.8086 170.385 31.8086C171.01 31.8086 171.531 31.6393 171.948 31.3008C172.371 30.9622 172.631 30.4414 172.729 29.7383L174.506 29.8555C174.37 30.8711 173.937 31.6816 173.207 32.2871C172.478 32.8926 171.554 33.1953 170.434 33.1953C168.956 33.1953 167.827 32.7298 167.045 31.7988C166.271 30.8613 165.883 29.4974 165.883 27.707C165.883 25.9297 166.274 24.5755 167.055 23.6445C167.836 22.707 168.956 22.2383 170.414 22.2383C171.495 22.2383 172.39 22.5182 173.1 23.0781C173.816 23.638 174.265 24.4095 174.448 25.3926L172.641 25.5293C172.55 24.9434 172.319 24.4779 171.948 24.1328C171.577 23.7878 171.049 23.6152 170.366 23.6152C169.435 23.6152 168.761 23.9245 168.344 24.543C167.927 25.1615 167.719 26.2031 167.719 27.668ZM178.119 27.668C178.119 29.0742 178.34 30.1159 178.783 30.793C179.226 31.4701 179.893 31.8086 180.785 31.8086C181.41 31.8086 181.931 31.6393 182.348 31.3008C182.771 30.9622 183.031 30.4414 183.129 29.7383L184.906 29.8555C184.77 30.8711 184.337 31.6816 183.607 32.2871C182.878 32.8926 181.954 33.1953 180.834 33.1953C179.356 33.1953 178.227 32.7298 177.445 31.7988C176.671 30.8613 176.283 29.4974 176.283 27.707C176.283 25.9297 176.674 24.5755 177.455 23.6445C178.236 22.707 179.356 22.2383 180.814 22.2383C181.895 22.2383 182.79 22.5182 183.5 23.0781C184.216 23.638 184.665 24.4095 184.848 25.3926L183.041 25.5293C182.95 24.9434 182.719 24.4779 182.348 24.1328C181.977 23.7878 181.449 23.6152 180.766 23.6152C179.835 23.6152 179.161 23.9245 178.744 24.543C178.327 25.1615 178.119 26.2031 178.119 27.668ZM196.117 27.707C196.117 29.556 195.71 30.9329 194.896 31.8379C194.082 32.7428 192.901 33.1953 191.351 33.1953C189.808 33.1953 188.643 32.7266 187.855 31.7891C187.067 30.8451 186.673 29.4844 186.673 27.707C186.673 24.0612 188.252 22.2383 191.41 22.2383C193.024 22.2383 194.213 22.6842 194.974 23.5762C195.736 24.4616 196.117 25.8385 196.117 27.707ZM194.271 27.707C194.271 26.2487 194.053 25.1908 193.617 24.5332C193.187 23.8691 192.461 23.5371 191.439 23.5371C190.41 23.5371 189.665 23.8757 189.203 24.5527C188.747 25.2233 188.519 26.2747 188.519 27.707C188.519 29.1003 188.744 30.1484 189.193 30.8516C189.649 31.5482 190.362 31.8965 191.332 31.8965C192.386 31.8965 193.138 31.5579 193.588 30.8809C194.043 30.2038 194.271 29.1458 194.271 27.707ZM200.433 22.4336V29.1328C200.433 29.8294 200.501 30.3698 200.638 30.7539C200.775 31.138 200.993 31.4147 201.292 31.584C201.592 31.7533 202.031 31.8379 202.611 31.8379C203.457 31.8379 204.124 31.5482 204.613 30.9688C205.101 30.3893 205.345 29.5853 205.345 28.5566V22.4336H207.103V30.7441C207.103 31.9746 207.122 32.7266 207.161 33H205.501C205.495 32.9674 205.488 32.8796 205.482 32.7363C205.475 32.5931 205.465 32.4303 205.452 32.248C205.446 32.0592 205.436 31.7077 205.423 31.1934H205.394C204.99 31.9225 204.521 32.4401 203.988 32.7461C203.46 33.0456 202.803 33.1953 202.015 33.1953C200.856 33.1953 200.006 32.9089 199.466 32.3359C198.932 31.7565 198.665 30.8027 198.665 29.4746V22.4336H200.433ZM216.956 33V26.3008C216.956 25.6042 216.888 25.0638 216.751 24.6797C216.614 24.2956 216.396 24.0189 216.096 23.8496C215.797 23.6803 215.358 23.5957 214.778 23.5957C213.932 23.5957 213.264 23.8854 212.776 24.4648C212.288 25.0443 212.044 25.8483 212.044 26.877V33H210.286V24.6895C210.286 23.459 210.266 22.707 210.227 22.4336H211.888C211.894 22.4661 211.901 22.554 211.907 22.6973C211.914 22.8405 211.92 23.0065 211.927 23.1953C211.94 23.3776 211.953 23.7259 211.966 24.2402H211.995C212.399 23.5111 212.864 22.9967 213.391 22.6973C213.925 22.3913 214.586 22.2383 215.374 22.2383C216.533 22.2383 217.379 22.528 217.913 23.1074C218.453 23.6803 218.723 24.6309 218.723 25.959V33H216.956ZM225.842 32.9219C225.263 33.0781 224.67 33.1562 224.065 33.1562C222.659 33.1562 221.955 32.3587 221.955 30.7637V23.7129H220.735V22.4336H222.024L222.541 20.0703H223.713V22.4336H225.666V23.7129H223.713V30.3828C223.713 30.8906 223.795 31.2487 223.957 31.457C224.127 31.6589 224.416 31.7598 224.827 31.7598C225.061 31.7598 225.399 31.7142 225.842 31.623V32.9219Z" fill="white"/>
</svg>
